<?xml version="1.0" encoding="utf-8"?>
<!-- Generator: Adobe Illustrator 16.0.3, SVG Export Plug-In . SVG Version: 6.00 Build 0)  -->
<!DOCTYPE svg PUBLIC "-//W3C//DTD SVG 1.1//EN" "http://www.w3.org/Graphics/SVG/1.1/DTD/svg11.dtd">
<svg version="1.1" id="Layer_1" xmlns="http://www.w3.org/2000/svg" xmlns:xlink="http://www.w3.org/1999/xlink" x="0px" y="0px"
	 width="412.479px" height="68.997px" viewBox="0 0 412.479 68.997" enable-background="new 0 0 412.479 68.997"
	 xml:space="preserve">
<g>
	<g>
		<path d="M44.583,10.055h1.898l0.407,13.661l-2.306,0.238c-1.267-5.188-4.297-11.566-10.176-11.566
			c-2.625,0-4.523,0.809-6.106,2.999c-1.583,2.284-1.81,3.998-2.306,6.711c-0.317,1.81-0.362,4.045-0.362,5.901
			c0,2.476,0.228,4.854,0.769,7.281c0.498,2.285,1.086,3.855,2.76,5.475c1.627,1.523,3.437,2.094,5.607,2.094
			c5.788,0,9.18-4.76,10.131-10.327l2.668,0.667c-1.765,8.566-6.332,12.564-14.652,12.564c-4.795,0-8.504-1.523-11.851-5.141
			c-3.12-3.33-4.386-7.806-4.386-12.375c0-4.949,1.583-9.662,4.929-13.184c3.166-3.332,7.191-5.094,11.669-5.094
			c3.211,0,5.426,0.43,8.186,2.285c0.136,0.144,0.361,0.285,0.541,0.381L44.583,10.055z"/>
		<path d="M59.077,25.53c5.328,0,9.896,4.575,9.896,9.932c0,5.359-4.567,9.938-9.896,9.938c-5.33,0-9.896-4.576-9.896-9.938
			C49.181,30.105,53.747,25.53,59.077,25.53z M59.077,44.114c3.299,0,4.594-3.293,4.594-8.652c0-5.356-1.295-8.649-4.594-8.649
			s-4.597,3.293-4.597,8.649C54.48,40.821,55.778,44.114,59.077,44.114z"/>
		<path d="M70.096,45.062v-1.115c2.087,0,2.763-0.447,2.763-1.842V28.821c0-1.396-0.676-1.842-2.763-1.842v-1.115h10.263v1.115
			c-2.086,0-2.763,0.446-2.763,1.842v13.227c0,1.34,0.507,1.73,1.917,1.73c2.848,0,5.074-2.902,5.809-6.084h1.211l-0.168,7.367
			H70.096z"/>
		<path d="M97.016,25.864v1.116c-2.198,0-2.876,0.446-2.876,1.843v11.496c0,2.566,2.199,3.795,4.031,3.795
			c3.158,0,4.766-1.619,4.766-4.855V29.101c0-1.395-0.677-1.841-3.018-2.121v-1.115h7.134v1.115
			c-1.917,0.279-2.595,0.727-2.595,2.121v9.934c0,4.408-2.734,6.363-7.414,6.363c-3.129,0-7.246-1.229-7.246-5.525V28.821
			c0-1.396-0.678-1.842-2.735-1.842v-1.115H97.016L97.016,25.864z"/>
		<path d="M108.546,45.062v-1.115c1.496-0.029,2.765-0.697,2.765-2.623v-12.67c0-1.422-0.931-1.646-2.594-1.674v-1.115h8.204
			l3.975,13.002h0.057l4.004-13.002h8.261v1.115c-2.058,0-2.735,0.446-2.735,1.842v13.283c0,1.395,0.678,1.842,2.735,1.842v1.115
			h-9.783v-1.115c1.86,0,2.538-0.447,2.538-1.842V27.929h-0.057l-5.385,17.133h-2.424l-5.16-17.133h-0.056v13.395
			c0,1.926,1.269,2.594,2.96,2.623v1.115H108.546z"/>
		<path d="M137.558,28.821c0-1.396-0.677-1.842-2.65-1.842v-1.115h10.094c4.258,0,7.076,1.729,7.076,4.771
			c0,2.678-2.029,3.907-4.511,4.157v0.057c2.791,0.361,5.554,1.59,5.554,4.799c0,2.4-1.69,5.414-7.16,5.414h-11.053v-1.115
			c1.975,0,2.65-0.447,2.65-1.842V28.821z M142.069,34.347h0.93c2.875,0,4.229-1.172,4.229-3.46c0-2.399-1.269-3.739-3.271-3.739
			c-1.129,0-1.889,0.559-1.889,1.896V34.347L142.069,34.347z M142.069,41.714c0,1.34,0.564,2.064,2.03,2.064
			c2.791,0,4.172-1.367,4.172-3.684c0-2.26-0.874-4.465-4.2-4.465h-2.002V41.714L142.069,41.714z"/>
		<path d="M155.29,45.062v-1.115c2.086,0,2.763-0.447,2.763-1.842V28.821c0-1.396-0.677-1.842-2.763-1.842v-1.115h10.262v1.115
			c-2.086,0-2.764,0.446-2.764,1.842v13.283c0,1.395,0.678,1.842,2.764,1.842v1.115H155.29z"/>
		<path d="M167.018,45.062v-1.115c2.115-0.393,2.792-1.229,3.778-3.545l6.259-14.873h1.495l7.217,16.547
			c0.592,1.34,1.212,1.758,2.679,1.869v1.115h-10.179v-1.115h1.128c1.466,0,1.692-0.334,1.692-0.92c0-0.363-0.141-0.727-0.311-1.115
			l-1.382-3.209h-6.202l-0.904,2.203c-0.14,0.361-0.338,0.977-0.338,1.758s0.508,1.283,1.607,1.283h1.382v1.115h-7.922V45.062z
			 M176.208,31.362l-2.396,5.887h4.961L176.208,31.362z"/>
	</g>
	<g>
		<path d="M226.153,32.052h2.215c1.811,5.426,6.106,11.232,12.166,11.232c3.166,0,6.56-1.57,6.56-5.426
			c0-3.189-2.127-4.475-4.841-4.996l-3.256-0.668c-3.348-0.666-6.195-1.332-9-3.521c-2.352-1.809-3.844-4.76-3.844-7.854
			c0-7.33,5.562-10.852,11.984-10.852c2.895,0,5.518,0.857,7.915,2.617l2.442-2.332h1.943l0.588,12.47h-2.261
			c-1.674-5.093-5.608-10.28-11.217-10.28c-2.851,0-6.195,1.475-6.195,4.95c0,3.427,2.983,4.378,5.606,4.95l2.851,0.57
			c6.513,1.429,12.662,3.427,12.662,11.756c0,3.285-1.354,6.33-3.799,8.473c-2.308,1.949-5.429,2.617-8.32,2.617
			c-3.257,0-6.468-1.047-9-3.189l-2.851,2.904h-1.989L226.153,32.052z"/>
		<path d="M252.495,45.128v-1.115c1.965,0,2.604-0.445,2.604-1.842V28.889c0-1.396-0.639-1.842-2.604-1.842v-1.116h9.619
			c3.721,0,6.484,1.786,6.484,5.105c0.105,3.432-2.658,5.387-6.244,5.33h-3.004v5.582c0,1.506,0.689,2.037,2.816,2.064v1.115
			H252.495L252.495,45.128z M259.351,35.083h0.982c2.578,0,3.693-1.367,3.693-3.879c0-2.147-1.01-3.989-2.923-3.989
			c-0.957,0-1.754,0.669-1.754,2.065L259.351,35.083L259.351,35.083z"/>
		<path d="M285.739,32.794h-1.143c-0.93-3.654-3.083-5.58-6.191-5.58c-1.647,0-2.207,0.419-2.207,1.785v5.414
			c2.551,0,3.43-0.615,4.146-3.236h1.062v7.756h-1.062c-0.717-2.623-1.596-3.236-4.146-3.236v6.363c0,1.367,0.56,1.785,2.207,1.785
			c3.562,0,5.768-2.4,6.616-6.027h1.144l-0.16,7.311H269.13v-1.115c1.967,0,2.605-0.445,2.605-1.842V28.889
			c0-1.396-0.639-1.842-2.605-1.842v-1.116h16.451L285.739,32.794z"/>
		<path d="M304.546,32.907h-1.062c-1.382-3.963-2.869-6.027-5.951-6.027c-3.297,0-4.73,3.181-4.73,8.65
			c0,5.691,1.807,8.648,5.421,8.648c3.509,0,5.528-2.344,5.739-6.557h1.171c0,4.883-2.632,7.842-7.494,7.842
			c-6.272,0-9.728-4.576-9.728-9.934c0-5.359,4.306-9.936,9.328-9.936c1.992,0,3.694,0.781,5.209,1.646l1.035-1.145h1.063
			L304.546,32.907L304.546,32.907z"/>
		<path d="M323.335,25.931l0.105,6.809h-1.222c-0.718-3.265-2.259-5.524-5.208-5.524v14.956c0,1.396,0.637,1.842,2.923,1.842v1.115
			h-10.364v-1.115c2.338,0,2.977-0.445,2.977-1.842V27.215c-2.95,0-4.491,2.26-5.209,5.524h-1.223l0.105-6.809H323.335z"/>
		<path d="M321.396,45.128v-1.115c1.994-0.391,2.631-1.229,3.562-3.545l5.898-14.872h1.409l6.804,16.546
			c0.559,1.34,1.143,1.76,2.523,1.871v1.115h-9.596v-1.115h1.063c1.384,0,1.595-0.336,1.595-0.922c0-0.363-0.133-0.727-0.291-1.115
			l-1.304-3.211h-5.847l-0.852,2.205c-0.132,0.363-0.316,0.979-0.316,1.758c0,0.781,0.477,1.285,1.514,1.285h1.303v1.115H321.396
			L321.396,45.128z M330.06,31.428l-2.258,5.888h4.678L330.06,31.428z"/>
		<path d="M356.21,25.931l0.107,6.809h-1.223c-0.717-3.265-2.26-5.524-5.209-5.524v14.956c0,1.396,0.638,1.842,2.924,1.842v1.115
			h-10.365v-1.115c2.338,0,2.977-0.445,2.977-1.842V27.215c-2.948,0-4.49,2.26-5.209,5.524h-1.223l0.107-6.809H356.21z"/>
		<path d="M366.31,25.596c5.021,0,9.328,4.576,9.328,9.935c0,5.357-4.307,9.934-9.328,9.934c-5.023,0-9.328-4.576-9.328-9.934
			C356.981,30.172,361.286,25.596,366.31,25.596z M366.31,44.179c3.109,0,4.332-3.291,4.332-8.648c0-5.358-1.223-8.65-4.332-8.65
			s-4.332,3.292-4.332,8.65C361.978,40.888,363.2,44.179,366.31,44.179z"/>
		<path d="M394.135,40.888c0,2.764-1.091,4.576-3.882,4.576c-2.711,0-3.772-1.508-3.959-4.801c-0.186-3.402-0.291-4.324-3.162-4.742
			v5.859c0,1.59,0.347,2.232,2.552,2.232v1.115h-9.405v-1.115c1.965,0,2.604-0.447,2.604-1.842V28.888
			c0-1.395-0.639-1.842-2.604-1.842V25.93h9.299c4.52,0,6.805,1.897,6.805,5.136c0,3.654-3.455,4.574-6.432,4.631v0.057
			c3.241,0.445,3.985,2.26,4.598,4.186c0.824,2.705,0.984,3.014,1.621,3.014c0.664,0,0.824-1.115,0.904-2.064H394.135
			L394.135,40.888z M383.132,34.915c2.896-0.139,4.678-0.613,4.678-3.822c0-2.316-1.115-3.878-2.949-3.878
			c-0.931,0-1.729,0.391-1.729,1.674V34.915z"/>
	</g>
	<g>
		<path d="M195.486,18.674l-0.178-0.446c0.523-0.263,0.729-0.604,0.719-0.931l-0.195-5.365l1.365-0.56l3.68,4.086
			c0.348,0.389,0.744,0.507,1.238,0.311l0.084,0.46c0,0-1.564,0.253-3.888,1.158l-0.162-0.515c0.597-0.236,0.63-0.373,0.572-0.516
			c-0.056-0.145-0.322-0.441-0.562-0.716l-1.61,0.638c0.028,0.211,0.017,0.496,0.093,0.688c0.111,0.279,0.365,0.363,0.955,0.129
			l0.186,0.484C196.449,18.075,195.486,18.674,195.486,18.674z M196.552,15.516l1.284-0.458l-1.311-1.554l-0.016,0.006
			L196.552,15.516z"/>
		<path d="M203.004,16.122v-0.479c0.841,0.001,0.978-0.153,0.979-0.548l0.006-4.021c0-0.395-0.138-0.549-1.013-0.551l0.001-0.479
			l4.382,0.005v0.479c-0.851,0-0.986,0.153-0.986,0.547l-0.006,4.023c0,0.395,0.137,0.549,1.026,0.551v0.48
			C207.394,16.128,205.241,15.682,203.004,16.122z"/>
		<path d="M208.474,16.444l0.178-0.445c0.701,0.281,0.887,0.188,1.033-0.178l1.432-3.564c0.148-0.366,0.078-0.561-0.606-0.835
			l0.181-0.446l3.885,1.561l-0.181,0.445c-0.731-0.294-0.917-0.201-1.063,0.164l-1.435,3.564c-0.133,0.334,0.149,0.679,0.539,0.834
			c0.502,0.203,1.276-0.036,1.897-1.006l0.422,0.168l-0.893,2.082C213.862,18.79,210.971,17.112,208.474,16.444z"/>
		<path d="M215.184,19.506l0.286-0.386c0.613,0.453,0.814,0.412,1.049,0.095l0.936-1.261l0.398-2.918
			c0.034-0.23-0.096-0.444-0.312-0.614l0.246-0.331l2.978,2.206l-0.285,0.386c-0.245-0.16-0.442-0.21-0.562-0.051
			c-0.092,0.124-0.28,1.359-0.414,1.986c0.385-0.217,1.609-0.717,1.773-0.938c0.143-0.192,0.021-0.347-0.289-0.619l0.286-0.386
			l1.709,1.266l-0.245,0.331c-0.436-0.334-0.859-0.167-1.306,0.048l-1.97,0.93l-1.026,1.386c-0.235,0.317-0.216,0.522,0.362,0.952
			l-0.285,0.386C218.514,21.972,217.03,20.516,215.184,19.506z"/>
		<g>
			<path d="M186.606,17.184l2.925-2.116c1.348-0.977,3.035-1.16,4.258,0.526c1.584,2.188-0.131,3.769-1.02,4.413l-2.701,1.955
				l-0.283-0.389c0.578-0.416,0.598-0.623,0.367-0.941l-2.254-3.112c-0.231-0.319-0.433-0.364-1.01,0.054L186.606,17.184z
				 M192.174,19.358c0.15,0.209,0.342,0.239,0.516,0.113c0.354-0.256,0.244-0.759-0.928-2.378s-1.615-1.88-1.969-1.624
				c-0.188,0.137-0.225,0.29-0.114,0.443L192.174,19.358z"/>
		</g>
	</g>
	<g>
		<path d="M196.053,45.532c-1.003-0.365,0.354-1.33-0.212-1.725c-0.998-0.229-1.07-0.475-1.175-0.727
			c-0.215-1.25,1.104-1.32,0.736-2.285c-0.875-2.623-3.314-5.66-4.279-8.237c-0.049-0.129-0.082-0.25-0.123-0.372
			c-0.012,0.004-0.022,0.01-0.035,0.012c-0.4,0.07-0.799-0.287-0.891-0.802c-0.09-0.511,0.162-0.985,0.562-1.056
			c0.003-0.001,0.007,0,0.012-0.001c-0.051-1.679,0.833-2.431,1.51-3.005c0.75-0.524,1.75-0.688,2.729-0.676
			c0-0.012-0.004-0.022-0.003-0.035c0.051-0.479,0.655-0.811,1.351-0.736c0.693,0.074,1.217,0.521,1.166,1.002
			c-0.003,0.035-0.016,0.066-0.023,0.102c0.636,0.152,1.055,0.297,1.055,0.297c2.725,0.945,4.072,0.07,4.885-0.666
			c1.665-1.767,0.357-2.977-0.263-2.73c-0.39,0.104-0.662,0.374-0.933,1.027c-1.012-0.398-0.982-3.672-0.062-4.049
			c0.141,0.424,0.398,0.953,0.96,1.192c0.351,0.104,0.772,0.035,1.056-0.21c0.28-0.316,0.316-0.845,0.139-1.232
			c0,0-0.375-0.73-1.204-0.976c0.264-0.44,1.2-0.681,2.102-0.707c0.898,0.026,1.836,0.267,2.098,0.707
			c-0.828,0.244-1.203,0.976-1.203,0.976c-0.174,0.388-0.141,0.916,0.141,1.232c0.283,0.245,0.704,0.316,1.057,0.21
			c0.562-0.241,0.817-0.771,0.959-1.192c0.92,0.377,0.951,3.65-0.062,4.049c-0.271-0.653-0.541-0.926-0.933-1.027
			c-0.621-0.245-1.93,0.965-0.262,2.73c0.812,0.736,2.164,1.611,4.883,0.666c0,0,0.418-0.146,1.058-0.297
			c-0.009-0.033-0.021-0.066-0.026-0.102c-0.05-0.48,0.473-0.928,1.17-1.002c0.692-0.073,1.297,0.257,1.35,0.736
			c0,0.012-0.002,0.023-0.002,0.035c0.979-0.012,1.976,0.15,2.728,0.676c0.677,0.574,1.56,1.326,1.509,3.005
			c0.004,0.001,0.008,0,0.014,0.001c0.398,0.07,0.652,0.545,0.56,1.056c-0.088,0.515-0.483,0.872-0.887,0.802
			c-0.015-0.002-0.024-0.009-0.041-0.012c-0.034,0.122-0.072,0.242-0.119,0.372c-0.966,2.577-3.405,5.614-4.276,8.237
			c-0.367,0.965,0.948,1.035,0.733,2.285c-0.104,0.252-0.179,0.498-1.174,0.727c-0.567,0.395,0.79,1.359-0.21,1.725
			c0,0-3.271-1.24-9.061-1.24C199.32,44.292,196.053,45.532,196.053,45.532z M205.096,29.688c-1.064,0-1.93,0.592-1.93,1.32
			s0.863,1.318,1.93,1.318c1.063,0,1.931-0.59,1.931-1.318S206.159,29.688,205.096,29.688z M192.25,29.43
			c-1.012,2.349,1.756,5.952,4.209,9.634c0.422,0.598,0.889,1.023,1.142,1.117c0.738,0.32,1.261-0.125,1.069-0.721
			c-0.414-1.242-0.829-2.209-1.297-3.451c-0.459-0.941-1.012-0.529-1.104,0.197c0,0-1.449-1.209-1.02-2.812
			c0.396,0.178,0.834,0.5,1.248,0.155c0.322-0.483-0.346-0.83-0.967-1.247c0.483-0.342,2.188-0.825,3.016-0.135
			c-0.6,0.392-1.035,0.852-0.67,1.289c0,0,0.647,0.666,1.291-0.668c0,0,1.104,0.828,0.726,2.928
			c-0.472-0.396-0.91-0.604-1.267-0.318c-0.103,0.109-0.18,0.17-0.066,0.611c1.135,2.393,1.195,2.578,1.839,3.498
			c0.37,0.49,0.708,0.613,1.069,0.623c0.619,0.082,1.22-0.156,1.57-0.807c0.506-1.016,0.592-2.855-0.444-4.764
			c-0.942-1.738-2.086-3.291-1.073-5.499c0,0-1.037,0.507-3.145-0.334C195.539,27.728,193.068,27.536,192.25,29.43z M200.617,42.683
			c0.405,0,0.737-0.33,0.737-0.736s-0.332-0.736-0.737-0.736c-0.406,0-0.736,0.33-0.736,0.736S200.211,42.683,200.617,42.683z
			 M211.842,28.727c-2.104,0.841-3.142,0.334-3.142,0.334c1.012,2.208-0.133,3.761-1.076,5.499
			c-1.035,1.908-0.949,3.748-0.442,4.764c0.349,0.648,0.951,0.889,1.569,0.807c0.361-0.01,0.699-0.133,1.066-0.623
			c0.645-0.92,0.706-1.105,1.84-3.498c0.113-0.441,0.039-0.502-0.064-0.611c-0.355-0.285-0.793-0.076-1.27,0.318
			c-0.377-2.1,0.73-2.928,0.73-2.928c0.643,1.334,1.285,0.668,1.285,0.668c0.367-0.438-0.068-0.897-0.666-1.289
			c0.83-0.689,2.531-0.207,3.017,0.135c-0.622,0.417-1.29,0.762-0.968,1.247c0.412,0.345,0.852,0.022,1.246-0.155
			c0.434,1.604-1.018,2.812-1.018,2.812c-0.09-0.729-0.644-1.141-1.104-0.197c-0.466,1.242-0.879,2.209-1.294,3.451
			c-0.194,0.596,0.332,1.041,1.064,0.721c0.254-0.094,0.723-0.52,1.144-1.117c2.452-3.682,5.226-7.287,4.209-9.634
			C217.153,27.536,214.682,27.728,211.842,28.727z M210.339,41.946c0-0.406-0.327-0.736-0.735-0.736
			c-0.403,0-0.737,0.33-0.737,0.736s0.334,0.736,0.737,0.736C210.012,42.683,210.339,42.353,210.339,41.946z M205.096,40.118
			c-0.609,0-1.105,0.496-1.105,1.104c0,0.611,0.498,1.105,1.105,1.105c0.61,0,1.104-0.494,1.104-1.105
			C206.2,40.614,205.706,40.118,205.096,40.118z M205.093,23.794c0.346,0,0.626-0.278,0.626-0.625c0-0.346-0.28-0.625-0.626-0.625
			s-0.625,0.279-0.625,0.625S204.747,23.794,205.093,23.794z"/>
		<path fill="none" stroke="#000000" stroke-width="0.3764" d="M205.11,44.292c5.791,0,9.061,1.24,9.061,1.24
			c1-0.365-0.358-1.33,0.21-1.725c0.995-0.229,1.067-0.475,1.174-0.727c0.215-1.25-1.103-1.32-0.733-2.285
			c0.871-2.623,3.312-5.66,4.276-8.237c0.047-0.129,0.085-0.25,0.119-0.372c0.017,0.004,0.026,0.01,0.041,0.012
			c0.401,0.07,0.799-0.287,0.887-0.802c0.093-0.511-0.159-0.985-0.56-1.056c-0.006-0.001-0.01,0-0.014-0.001
			c0.051-1.679-0.832-2.431-1.509-3.005c-0.752-0.524-1.749-0.688-2.728-0.676c0-0.012,0.002-0.022,0.002-0.035
			c-0.053-0.479-0.656-0.811-1.35-0.736c-0.697,0.074-1.22,0.521-1.17,1.002c0.006,0.035,0.02,0.066,0.026,0.102
			c-0.64,0.152-1.058,0.297-1.058,0.297c-2.72,0.945-4.07,0.07-4.883-0.666c-1.668-1.767-0.359-2.977,0.262-2.73
			c0.392,0.104,0.662,0.374,0.933,1.027c1.013-0.398,0.981-3.672,0.062-4.049c-0.142,0.424-0.397,0.953-0.959,1.192
			c-0.353,0.104-0.772,0.035-1.057-0.21c-0.281-0.316-0.314-0.845-0.141-1.232c0,0,0.375-0.73,1.203-0.976
			c-0.262-0.44-1.199-0.681-2.099-0.707c-0.9,0.026-1.837,0.267-2.102,0.707c0.83,0.244,1.205,0.976,1.205,0.976
			c0.178,0.388,0.142,0.916-0.139,1.232c-0.283,0.245-0.707,0.316-1.056,0.21c-0.562-0.241-0.819-0.771-0.96-1.192
			c-0.92,0.377-0.951,3.65,0.062,4.049c0.271-0.653,0.541-0.926,0.933-1.027c0.62-0.245,1.928,0.965,0.263,2.73
			c-0.812,0.736-2.162,1.611-4.885,0.666c0,0-0.419-0.146-1.055-0.297c0.009-0.033,0.021-0.066,0.023-0.102
			c0.051-0.48-0.472-0.928-1.166-1.002c-0.695-0.073-1.3,0.257-1.352,0.736c0,0.012,0.004,0.023,0.004,0.035
			c-0.979-0.012-1.979,0.15-2.729,0.676c-0.678,0.574-1.561,1.326-1.51,3.005c-0.004,0.001-0.008,0-0.012,0.001
			c-0.4,0.07-0.653,0.545-0.562,1.056c0.092,0.515,0.49,0.872,0.891,0.802c0.013-0.002,0.023-0.009,0.035-0.012
			c0.041,0.122,0.074,0.242,0.123,0.372c0.965,2.577,3.403,5.614,4.279,8.237c0.367,0.965-0.951,1.035-0.736,2.285
			c0.104,0.252,0.177,0.498,1.174,0.727c0.566,0.395-0.791,1.359,0.213,1.725C196.053,45.532,199.32,44.292,205.11,44.292z"/>
		<path fill="none" stroke="#000000" stroke-width="0.3764" d="M192.25,29.43c-1.012,2.349,1.756,5.952,4.209,9.634
			c0.422,0.598,0.889,1.023,1.142,1.117c0.738,0.32,1.261-0.125,1.069-0.721c-0.414-1.242-0.829-2.209-1.297-3.451
			c-0.459-0.941-1.012-0.529-1.104,0.197c0,0-1.449-1.209-1.02-2.812c0.396,0.178,0.834,0.5,1.248,0.155
			c0.322-0.483-0.346-0.83-0.967-1.247c0.483-0.342,2.188-0.825,3.016-0.135c-0.6,0.392-1.035,0.852-0.67,1.289
			c0,0,0.647,0.666,1.291-0.668c0,0,1.104,0.828,0.726,2.928c-0.472-0.396-0.91-0.604-1.267-0.318
			c-0.103,0.109-0.18,0.17-0.066,0.611c1.135,2.393,1.195,2.578,1.839,3.498c0.37,0.49,0.708,0.613,1.069,0.623
			c0.619,0.082,1.22-0.156,1.57-0.807c0.506-1.016,0.592-2.855-0.444-4.764c-0.942-1.738-2.086-3.291-1.073-5.499
			c0,0-1.037,0.507-3.145-0.334C195.539,27.728,193.068,27.536,192.25,29.43z"/>
		<path fill="none" stroke="#000000" stroke-width="0.3764" d="M211.842,28.727c-2.104,0.841-3.142,0.334-3.142,0.334
			c1.012,2.208-0.133,3.761-1.076,5.499c-1.035,1.908-0.949,3.748-0.442,4.764c0.349,0.648,0.951,0.889,1.569,0.807
			c0.361-0.01,0.699-0.133,1.066-0.623c0.645-0.92,0.706-1.105,1.84-3.498c0.113-0.441,0.039-0.502-0.064-0.611
			c-0.355-0.285-0.793-0.076-1.27,0.318c-0.377-2.1,0.73-2.928,0.73-2.928c0.643,1.334,1.285,0.668,1.285,0.668
			c0.367-0.438-0.068-0.897-0.666-1.289c0.83-0.689,2.531-0.207,3.017,0.135c-0.622,0.417-1.29,0.762-0.968,1.247
			c0.412,0.345,0.852,0.022,1.246-0.155c0.434,1.604-1.018,2.812-1.018,2.812c-0.09-0.729-0.644-1.141-1.104-0.197
			c-0.466,1.242-0.879,2.209-1.294,3.451c-0.194,0.596,0.332,1.041,1.064,0.721c0.254-0.094,0.723-0.52,1.144-1.117
			c2.452-3.682,5.226-7.287,4.209-9.634C217.153,27.536,214.682,27.728,211.842,28.727z"/>
	</g>
	<g>
		<path d="M149.008,50.468c-0.072,0-0.101-0.027-0.106-0.129c-0.029-0.322-0.13-0.529-0.301-0.586c-0.07-0.02-0.07-0.014-0.18-0.02
			c-0.049-0.01,0.008,0-0.186-0.01c-0.107-0.006-0.035-0.006-0.214-0.006h-0.265h-0.094l-0.092-0.008h-0.094
			c-0.5,0-0.688,0.121-0.679,0.451l0.007,0.312l-0.007,0.303c-0.007,0.35,0.014,0.191,0.014,0.479c0,0.371,0,0.393,0.086,0.393
			h0.222h0.158h0.313h0.2l0.25-0.008h0.123c0.271,0,0.393-0.129,0.408-0.436c0.006-0.102,0.027-0.121,0.113-0.121
			c0.064,0,0.085,0.029,0.085,0.107c0,0,0,0.02,0,0.033v0.18c0,0.07,0-0.021-0.014,0.287c0,0.033,0,0.062,0.007,0.129
			c0.007,0.086,0.007,0.156,0.007,0.191v0.158c0,0.078,0,0.143,0.007,0.191c0.008,0.051,0.008,0.086,0.008,0.115
			c0,0.057-0.029,0.07-0.107,0.07c-0.071,0-0.094-0.027-0.107-0.129c-0.035-0.207-0.063-0.307-0.129-0.393
			c-0.1-0.137-0.093-0.164-0.701-0.164h-0.235h-0.216c0,0-0.063,0.006-0.143,0.006c-0.336,0.016-0.336,0.008-0.336,0.086v0.18
			l-0.007,0.479l0.015,0.336l-0.007,0.287c-0.007,0.422,0.007,0.527,0.043,0.621c0.036,0.107,0.144,0.172,0.313,0.188
			c0.144,0.014,0.25,0.021,0.293,0.021c0.101,0,0.129,0.02,0.129,0.102c0,0.107-0.028,0.135-0.137,0.135h-0.006
			c-0.072,0-0.094-0.008-0.129-0.008c-0.18,0-0.115,0-0.437-0.02c-0.087-0.01-0.214-0.01-0.358-0.01
			c-0.156,0-0.336,0.016-0.578,0.043c-0.201,0.021-0.302,0.029-0.352,0.029c-0.122,0-0.15-0.016-0.15-0.094
			c0-0.137-0.05-0.115,0.465-0.193c0.266-0.043,0.315-0.172,0.309-0.973l-0.008-0.629l0.008-0.328l-0.008-0.357l0.008-0.314
			l-0.014-0.309V50.86c0-0.271-0.008-0.164-0.016-0.322c0-0.07,0.008,0-0.014-0.221c-0.036-0.473-0.051-0.51-0.165-0.553
			c-0.071-0.025-0.286-0.057-0.443-0.049c-0.128,0-0.149-0.016-0.149-0.123c0-0.084,0.035-0.105,0.164-0.105l0.594,0.008h0.143
			c0.387,0,0.193-0.014,0.579-0.014h0.744c0.536,0,0.451-0.021,1.015-0.021h0.166c0.278,0,0.293,0.006,0.293,0.15v0.043
			c0,0.014,0.006-0.018,0.006,0.264v0.115v0.299C149.122,50.438,149.1,50.468,149.008,50.468z"/>
		<path d="M151.259,54.407c-0.93,0-1.73-0.736-1.73-1.602c0-1.008,0.795-1.795,1.803-1.795c0.965,0,1.779,0.744,1.779,1.623
			C153.11,53.563,152.23,54.407,151.259,54.407z M151.251,51.226c-0.672,0-1.131,0.543-1.131,1.33c0,0.486,0.107,0.828,0.344,1.129
			c0.258,0.314,0.551,0.473,0.879,0.473c0.679,0,1.18-0.572,1.18-1.33C152.523,51.913,151.974,51.226,151.251,51.226z"/>
		<path d="M157.071,51.347c-0.207,0-0.343,0.102-0.336,0.258l0.008,0.158l-0.008,0.105l0.008,0.193c0,0.027,0,0.094-0.008,0.193
			c-0.007,0.07-0.007,0.178-0.007,0.264c0,0.027,0,0.086,0.007,0.164v0.15c0,0.707-0.086,1.029-0.351,1.279
			c-0.214,0.199-0.572,0.314-1.017,0.314c-0.879,0-1.336-0.393-1.322-1.166l0.008-0.328l-0.008-0.607l0.008-0.229v-0.105
			c0-0.107-0.008-0.193-0.008-0.268v-0.1c0-0.178-0.106-0.258-0.356-0.264c-0.106-0.008-0.129-0.021-0.129-0.102
			c0-0.105,0.015-0.121,0.101-0.121c0.057,0,0.136,0,0.379,0.016c0.057,0.006,0.1,0.006,0.156,0.006
			c0.021,0,0.107-0.006,0.223-0.006h0.1c0.043-0.008,0.1-0.008,0.1-0.008c0.18-0.014,0.129,0,0.166-0.008h0.063h0.121
			c0.093,0,0.114,0.016,0.114,0.094v0.021c0,0.078-0.021,0.092-0.17,0.092c-0.209,0-0.33,0.102-0.33,0.258v0.158l-0.006,0.105
			l0.006,0.193c0,0.008,0,0.086-0.006,0.193c-0.008,0.084-0.008,0.256-0.008,0.436c0,0.078,0,0.07,0.014,0.406
			c0.015,0.387,0.008,0.352,0.029,0.459c0.086,0.385,0.356,0.559,0.887,0.559c0.707,0,0.994-0.322,0.973-1.193l-0.016-0.594
			l0.016-0.23c0-0.02,0-0.057-0.007-0.105c-0.007-0.107-0.007-0.193-0.007-0.266v-0.1c0-0.18-0.107-0.258-0.357-0.264
			c-0.107-0.01-0.128-0.021-0.128-0.102c0-0.105,0.015-0.123,0.101-0.123c0.049,0,0.035,0,0.328,0.018
			c0.036,0.006,0.107,0.006,0.2,0.006c0.106,0,0.136-0.006,0.222-0.006h0.051c0.058-0.01,0.035-0.01,0.072-0.01
			c0.078,0,0.028-0.008,0.156-0.008h0.036c0.085,0,0.106,0.021,0.106,0.094v0.021C157.243,51.333,157.222,51.347,157.071,51.347z"/>
		<path d="M161.39,51.347c-0.208,0-0.344,0.107-0.336,0.258l0.007,0.164l-0.007,0.102l0.007,0.191c0,0.035,0,0.094-0.007,0.193
			c-0.008,0.072-0.008,0.236-0.008,0.379c0,0.18,0,0.137,0.008,0.4c0.007,0.137,0.007,0.301,0.007,0.5v0.201
			c0,0.148,0,0.27,0.007,0.379c0.008,0.062,0.008,0.113,0.008,0.164c0,0.094-0.029,0.129-0.123,0.129
			c-0.071,0-0.113-0.029-0.179-0.107c-0.093-0.129-0.129-0.172-0.364-0.422c-0.115-0.115-0.115-0.121-0.215-0.244l-0.072-0.084
			c-0.092-0.107-0.043-0.059-0.143-0.166c-0.244-0.27-0.258-0.285-0.408-0.457c-0.164-0.199-0.293-0.35-0.365-0.428
			c-0.229-0.236-0.229-0.236-0.278-0.301c-0.106-0.129-0.063-0.072-0.144-0.158c-0.021-0.021-0.029-0.035-0.029-0.035l-0.1-0.115
			l-0.05-0.062c-0.021-0.029-0.063-0.072-0.114-0.137c0,0.352,0.008,0.236,0.008,0.709v0.135v0.207c0,0.164,0.006,0.279,0.006,0.293
			l-0.006,0.293v0.107c0,0.107,0.006,0.193,0.006,0.266v0.094c0,0.186,0.107,0.264,0.357,0.271c0.107,0,0.129,0.02,0.129,0.102
			c0,0.107-0.015,0.121-0.1,0.121c-0.057,0-0.036,0-0.329-0.014c-0.036-0.01-0.114-0.01-0.2-0.01c-0.107,0-0.136,0.01-0.222,0.01
			h-0.05c-0.059,0.006-0.036,0.006-0.072,0.006h-0.057h-0.036l-0.029,0.008h-0.036h-0.035c-0.086,0-0.107-0.021-0.107-0.094v-0.021
			c0-0.078,0.021-0.092,0.171-0.092c0.208,0,0.343-0.107,0.336-0.258l-0.007-0.166l0.007-0.1v-0.193
			c0-0.027,0.007-0.102,0.007-0.199v-0.201v-0.178v-0.102v-0.363c0-0.072,0-0.145-0.007-0.371c0-0.072-0.007-0.129-0.007-0.182
			c0-0.172-0.008-0.234-0.043-0.277c-0.057-0.078-0.18-0.135-0.293-0.145c-0.172-0.006-0.186-0.02-0.186-0.135
			c0-0.072,0.035-0.094,0.164-0.094h0.086c0.1,0,0.021,0,0.457,0.016c0.357,0.006,0.344,0.006,0.408,0.086
			c0.008,0.016,0.036,0.043,0.064,0.078c0.014,0.016,0.121,0.135,0.271,0.314c0.086,0.1,0.171,0.199,0.243,0.277
			c0.086,0.094,0.093,0.102,0.179,0.217c0.071,0.086,0.214,0.264,0.337,0.414l0.063,0.064l0.214,0.234
			c0.1,0.113,0.129,0.148,0.266,0.312c0.084,0.104,0.143,0.18,0.143,0.18c0.121,0.15,0.113,0.131,0.199,0.244
			c-0.006-0.229-0.006-0.18-0.006-0.529V52.89c0-0.32-0.015-0.551-0.015-0.562l0.015-0.23c0-0.006,0-0.049-0.008-0.105
			c-0.007-0.107-0.007-0.193-0.007-0.266v-0.1c0-0.18-0.106-0.258-0.356-0.264c-0.107-0.01-0.129-0.021-0.129-0.102
			c0-0.105,0.014-0.123,0.1-0.123c0.05,0,0.035,0,0.328,0.018c0.037,0.006,0.115,0.006,0.201,0.006c0.106,0,0.135-0.006,0.222-0.006
			h0.05c0.057-0.01,0.036-0.01,0.07-0.01c0.08,0,0.029-0.008,0.158-0.008h0.037c0.086,0,0.106,0.021,0.106,0.096v0.02
			C161.562,51.333,161.54,51.347,161.39,51.347z"/>
		<path d="M163.678,54.294c-0.043,0-0.063,0-0.136-0.008h-0.137c-0.084,0-0.127-0.008-0.265-0.014
			c-0.101-0.008-0.164-0.008-0.235-0.008c-0.015,0-0.115,0.008-0.222,0.008h-0.101c-0.057,0.006-0.1,0.006-0.1,0.006
			c-0.179,0.016-0.128,0-0.164,0.008h-0.058h-0.128c-0.094,0-0.115-0.014-0.115-0.094v-0.021c0-0.078,0.021-0.092,0.172-0.092
			c0.207,0,0.344-0.102,0.336-0.258l-0.007-0.156l0.007-0.107l-0.007-0.193c0-0.078,0.007-0.102,0.007-0.191v-0.309
			c0-0.102-0.007-0.242-0.007-0.328v-0.18l0.007-0.258v-0.105c0-0.107-0.007-0.193-0.007-0.268v-0.1
			c0-0.164-0.086-0.236-0.293-0.236h-0.063c-0.021,0.01-0.037,0.01-0.059,0.01c-0.05,0-0.07-0.029-0.07-0.094v-0.021
			c0-0.049,0.014-0.086,0.035-0.086c0.107-0.006,0.051,0,0.165-0.027l0.05-0.008c0.537-0.078,0.922-0.129,1.338-0.129
			c1.064,0,1.845,0.715,1.845,1.688C165.466,53.636,164.715,54.294,163.678,54.294z M164.636,51.747
			c-0.236-0.32-0.645-0.521-1.051-0.521c-0.314,0-0.479,0.043-0.522,0.139c-0.007,0.025-0.014,0.062-0.014,0.186l-0.007,0.064v0.135
			l0.007,0.279l-0.015,0.344l0.008,0.186l-0.008,0.414l0.008,0.266v0.186c0,0.336,0.021,0.473,0.093,0.543
			c0.063,0.059,0.313,0.115,0.508,0.115c0.758,0,1.258-0.537,1.258-1.352C164.901,52.341,164.801,51.97,164.636,51.747z"/>
		<path d="M168.696,53.751c-0.014,0.049,0,0.006-0.035,0.135c-0.08,0.328-0.123,0.4-0.236,0.395l-0.15-0.006
			c0,0-0.07,0.006-0.171,0.006h-0.114c-0.308,0-0.137-0.006-0.522-0.006c-0.187,0-0.042-0.01-0.421-0.01h-0.1
			c-0.094,0-0.173,0.01-0.322,0.01h-0.094l-0.057,0.006h-0.143c-0.058,0.008-0.021,0-0.101,0.008h-0.028h-0.129
			c-0.093,0-0.113-0.014-0.113-0.094v-0.021c0-0.078,0.021-0.092,0.17-0.092c0.209,0,0.337-0.102,0.337-0.258v-0.158v-0.107v-0.191
			c0-0.016,0.007-0.086,0.007-0.193v-0.307c0-0.137-0.007-0.23-0.007-0.33v-0.178l0.007-0.26c0-0.006,0-0.049-0.007-0.105v-0.266
			v-0.1c0-0.172-0.114-0.258-0.356-0.264c-0.115-0.008-0.137-0.021-0.137-0.102c0-0.105,0.014-0.123,0.1-0.123
			c0.058,0,0.137,0,0.387,0.018c0.07,0,0.129,0.006,0.15,0.006l0.129-0.006h0.543l0.465-0.018h0.164c0.135,0,0.235,0.01,0.258,0.01
			c0.265,0,0.285,0.008,0.285,0.135v0.027v0.217v0.234c0,0.102-0.027,0.137-0.113,0.137c-0.079,0-0.1-0.051-0.115-0.217
			c-0.014-0.178-0.05-0.27-0.121-0.293c-0.079-0.02-0.3-0.043-0.458-0.043h-0.044c-0.115,0-0.064-0.006-0.158-0.006h-0.142
			c-0.293,0-0.308,0-0.308,0.414v0.094v0.102v0.186v0.393c0.113,0.008,0.213,0.008,0.271,0.008c0.572,0,0.551,0.014,0.629-0.285
			c0.021-0.072,0.051-0.1,0.114-0.1c0.058,0,0.093,0.033,0.093,0.113c0,0.008,0,0.051-0.007,0.086v0.215
			c0,0.006-0.015,0.07-0.015,0.172v0.105v0.064c0.008,0.062,0.008,0.115,0.008,0.143c0,0.094-0.051,0.145-0.129,0.137
			c-0.064-0.008-0.079-0.043-0.1-0.25c-0.021-0.164-0.037-0.18-0.193-0.186c-0.322-0.016-0.209-0.016-0.344-0.016h-0.164
			c-0.051,0-0.086,0-0.158,0.008v0.02c0,0.059-0.006-0.1-0.006,0.494v0.193v0.086c0,0.543-0.008,0.557,0.787,0.535
			c0.601-0.014,0.535,0,0.721-0.443c0.029-0.07,0.064-0.113,0.107-0.113c0.072-0.008,0.115,0.043,0.115,0.121
			C168.726,53.665,168.726,53.649,168.696,53.751z"/>
		<path d="M170.77,54.294c-0.042,0-0.063,0-0.136-0.008h-0.137c-0.086,0-0.129-0.008-0.265-0.014
			c-0.1-0.008-0.165-0.008-0.235-0.008c-0.015,0-0.114,0.008-0.223,0.008h-0.1c-0.057,0.006-0.1,0.006-0.1,0.006
			c-0.18,0.016-0.129,0-0.166,0.008h-0.057h-0.128c-0.093,0-0.114-0.014-0.114-0.094v-0.021c0-0.078,0.02-0.092,0.17-0.092
			c0.209,0,0.344-0.102,0.336-0.258l-0.006-0.156l0.006-0.107l-0.006-0.193c0-0.078,0.006-0.102,0.006-0.191v-0.309
			c0-0.102-0.006-0.242-0.006-0.328v-0.18l0.006-0.258v-0.105c0-0.107-0.006-0.193-0.006-0.268v-0.1
			c0-0.164-0.086-0.236-0.294-0.236h-0.063c-0.021,0.01-0.036,0.01-0.057,0.01c-0.051,0-0.072-0.029-0.072-0.094v-0.021
			c0-0.049,0.015-0.086,0.037-0.086c0.106-0.006,0.049,0,0.164-0.027l0.049-0.008c0.537-0.078,0.922-0.129,1.338-0.129
			c1.064,0,1.845,0.715,1.845,1.688C172.558,53.636,171.807,54.294,170.77,54.294z M171.729,51.747
			c-0.235-0.32-0.644-0.521-1.051-0.521c-0.313,0-0.479,0.043-0.522,0.139c-0.007,0.025-0.014,0.062-0.014,0.186l-0.007,0.064v0.135
			l0.007,0.279l-0.016,0.344l0.008,0.186l-0.008,0.414l0.008,0.266v0.186c0,0.336,0.021,0.473,0.093,0.543
			c0.063,0.059,0.313,0.115,0.507,0.115c0.758,0,1.258-0.537,1.258-1.352C171.993,52.341,171.893,51.97,171.729,51.747z"/>
		<path d="M176.612,51.448c-0.486,0.035-0.559,0.135-0.559,0.766v0.207c0,0.395-0.016,0.457-0.016,0.914v0.158
			c0,0.393,0.094,0.521,0.43,0.557c0.171,0.016,0.171,0.016,0.171,0.129c0,0.102-0.007,0.107-0.085,0.107h-0.086
			c-0.021,0,0.021,0-0.243-0.008c-0.2-0.006-0.093-0.014-0.329-0.014h-0.035c-0.144,0-0.337,0.008-0.516,0.021
			c-0.072,0.006-0.223,0.014-0.293,0.014c-0.18,0-0.193-0.008-0.193-0.121c0,0,0-0.014,0-0.035c0-0.059,0.014-0.064,0.072-0.072
			c0.486-0.035,0.559-0.137,0.559-0.766v-0.441c0-0.273,0.014-0.309,0.014-0.682v-0.178c0-0.371-0.1-0.5-0.43-0.537
			c-0.172-0.02-0.172-0.014-0.172-0.127c0-0.102,0.008-0.107,0.086-0.107h0.071c0.043,0-0.015,0,0.257,0.008
			c0.129,0.006,0.15,0.006,0.15,0.006h0.057l0.064,0.008h0.058h0.036c0.129,0,0.344-0.008,0.516-0.02
			c0.07-0.01,0.221-0.016,0.293-0.016c0.178,0,0.192,0.006,0.192,0.121c0,0,0,0.014,0,0.035
			C176.683,51.433,176.669,51.44,176.612,51.448z"/>
		<path d="M179.198,51.411c-0.106,0.143-0.121,0.158-0.465,0.438c-0.007,0.006-0.021,0.016-0.027,0.027l-0.021,0.021
			c-0.029,0.029-0.036,0.035-0.036,0.059c0,0.021,0.007,0.027,0.05,0.057c0.379,0.244,0.715,0.809,0.715,1.201
			c0,0.322-0.149,0.68-0.363,0.879c-0.266,0.244-0.458,0.314-0.83,0.314c-0.537,0-1.037-0.5-1.037-1.037
			c0-0.4,0.243-0.785,0.729-1.15c0.072-0.049,0.08-0.057,0.08-0.086c0-0.02,0-0.02-0.051-0.062c-0.021-0.021-0.007-0.008-0.05-0.043
			c-0.079-0.064-0.028-0.021-0.149-0.129c-0.301-0.25-0.486-0.645-0.486-1.01c0-0.264,0.143-0.637,0.322-0.83
			c0.229-0.234,0.479-0.342,0.822-0.342c0.586,0,1.043,0.443,1.043,1.016C179.442,50.968,179.349,51.22,179.198,51.411z
			 M178.497,52.563c-0.049-0.043-0.092-0.086-0.135-0.129c-0.144-0.129-0.193-0.166-0.229-0.166c-0.05,0-0.193,0.158-0.329,0.352
			c-0.114,0.164-0.157,0.336-0.157,0.586c0,0.516,0.286,0.887,0.681,0.887c0.371,0,0.629-0.264,0.629-0.648
			C178.956,53.085,178.833,52.843,178.497,52.563z M178.327,50.003c-0.336,0-0.629,0.328-0.629,0.701
			c0,0.285,0.199,0.615,0.528,0.871c0.093,0.072,0.158,0.123,0.172,0.137c0.063,0.064,0.071,0.072,0.093,0.072
			c0.022,0,0.15-0.107,0.25-0.223c0.164-0.18,0.244-0.428,0.244-0.742C178.985,50.368,178.69,50.003,178.327,50.003z"/>
		<path d="M182.616,51.476c-0.049,0.078-0.006,0-0.143,0.236c-0.064,0.113-0.036,0.051-0.107,0.178l-0.078,0.137
			c-0.209,0.357-0.123,0.236-0.215,0.408c-0.086,0.15-0.149,0.264-0.149,0.264l-0.015,0.037l-0.014,0.027l-0.021,0.035
			c-0.049,0.107-0.149,0.279-0.285,0.508c-0.122,0.193-0.2,0.328-0.279,0.465c-0.016,0.029,0.07-0.129-0.279,0.508
			c-0.1,0.186-0.15,0.271-0.229,0.387l-0.028,0.043c-0.036,0.057,0.007-0.016-0.122,0.207c-0.242,0.43-0.199,0.365-0.365,0.615
			c-0.063,0.1-0.106,0.164-0.135,0.207c-0.029,0.059-0.058,0.078-0.086,0.078c-0.121,0-0.265-0.07-0.265-0.135
			c0-0.051,0.014-0.064,0.2-0.352c0.014-0.021,0.057-0.102,0.113-0.199c0.043-0.08,0.008-0.029,0.166-0.279
			c0.078-0.129,0.043-0.057,0.129-0.215c0.043-0.07,0,0,0.143-0.229c0.07-0.121,0.035-0.059,0.1-0.18
			c0.129-0.223,0.114-0.191,0.271-0.449c0.1-0.158,0.078-0.123,0.3-0.5c0.05-0.096,0.079-0.139,0.079-0.139
			c0.285-0.484,0.172-0.293,0.415-0.721c0.014-0.021,0.036-0.064,0.063-0.115c0.143-0.25,0.172-0.312,0.178-0.387
			c0.008-0.086-0.1-0.121-0.364-0.121h-0.128c-0.021,0-0.107-0.008-0.229-0.008h-0.15h-0.193c-0.307,0-0.3-0.006-0.521-0.006h-0.222
			c-0.25,0-0.278-0.021-0.278-0.129c0-0.051,0.028-0.121,0.123-0.309c0.057-0.113,0.084-0.135,0.178-0.135
			c0.107,0,0.271,0,0.386,0.006c0.101,0.008,0.172,0.008,0.187,0.008h0.106c0.115,0,0.149,0.008,0.343,0.016
			c0.107,0.006,0.229,0.006,0.365,0.006c0.387,0,0.436,0,0.672,0.021h0.271c0.121,0,0.164,0.021,0.164,0.086
			C182.665,51.405,182.659,51.419,182.616,51.476z"/>
		<path d="M185.831,51.476c-0.049,0.078-0.006,0-0.143,0.236c-0.064,0.113-0.035,0.051-0.107,0.178l-0.078,0.137
			c-0.207,0.357-0.122,0.236-0.215,0.408c-0.086,0.15-0.149,0.264-0.149,0.264l-0.015,0.037l-0.014,0.027l-0.021,0.035
			c-0.05,0.107-0.15,0.279-0.286,0.508c-0.122,0.193-0.2,0.328-0.279,0.465c-0.014,0.029,0.072-0.129-0.279,0.508
			c-0.1,0.186-0.149,0.271-0.229,0.387l-0.027,0.043c-0.037,0.057,0.006-0.016-0.123,0.207c-0.242,0.43-0.199,0.365-0.365,0.615
			c-0.063,0.1-0.106,0.164-0.135,0.207c-0.029,0.059-0.058,0.078-0.086,0.078c-0.123,0-0.265-0.07-0.265-0.135
			c0-0.051,0.015-0.064,0.2-0.352c0.015-0.021,0.057-0.102,0.115-0.199c0.043-0.08,0.006-0.029,0.164-0.279
			c0.078-0.129,0.043-0.057,0.129-0.215c0.043-0.07,0,0,0.143-0.229c0.072-0.121,0.036-0.059,0.1-0.18
			c0.129-0.223,0.114-0.191,0.272-0.449c0.101-0.158,0.079-0.123,0.3-0.5c0.051-0.096,0.079-0.139,0.079-0.139
			c0.286-0.484,0.171-0.293,0.415-0.721c0.014-0.021,0.036-0.064,0.064-0.115c0.143-0.25,0.17-0.312,0.179-0.387
			c0.007-0.086-0.101-0.121-0.365-0.121h-0.129c-0.021,0-0.106-0.008-0.229-0.008h-0.149h-0.192c-0.309,0-0.301-0.006-0.523-0.006
			h-0.221c-0.25,0-0.279-0.021-0.279-0.129c0-0.051,0.029-0.121,0.121-0.309c0.058-0.113,0.086-0.135,0.18-0.135
			c0.107,0,0.271,0,0.386,0.006c0.101,0.008,0.171,0.008,0.187,0.008h0.106c0.114,0,0.15,0.008,0.343,0.016
			c0.107,0.006,0.229,0.006,0.364,0.006c0.386,0,0.437,0,0.673,0.021h0.271c0.121,0,0.164,0.021,0.164,0.086
			C185.882,51.405,185.874,51.419,185.831,51.476z"/>
		<path d="M190.121,52.835c-0.558,0-1-0.443-1-0.994c0-0.543,0.442-0.986,1-0.986c0.537,0,0.979,0.443,0.979,0.986
			S190.658,52.835,190.121,52.835z"/>
		<path d="M196.478,54.3c-0.015,0-0.136-0.006-0.265-0.014c-0.043-0.008-0.164-0.008-0.336-0.014
			c-0.143-0.008-0.264-0.008-0.279-0.008c-0.229,0-0.086-0.008-0.629,0.021c-0.029,0-0.129,0.014-0.266,0.014h-0.057
			c-0.107,0-0.129-0.021-0.136-0.129c-0.007-0.086,0.043-0.113,0.192-0.113c0.473,0,0.516-0.021,0.516-0.631v-0.242l0.015-0.414
			l-0.021-1.631v-0.336c0,0,0-0.129,0-0.293c-0.008-0.18-0.008-0.1-0.008-0.236c0-0.479-0.057-0.535-0.528-0.551
			c-0.144,0-0.164-0.014-0.164-0.092c0-0.115,0.028-0.145,0.144-0.145c0.043,0,0.135,0.008,0.293,0.016
			c0.207,0.014,0.25,0.006,0.543,0.006c0.25,0,0.258,0,0.586-0.02c0.121-0.008,0.278-0.016,0.351-0.016
			c0.101,0,0.136,0.029,0.136,0.102c0,0.105-0.043,0.127-0.242,0.135c-0.244,0.014-0.344,0.051-0.4,0.15
			c-0.043,0.086-0.043,0.027-0.051,0.672c0,0.057,0,0.207-0.006,0.414c-0.008,0.201-0.008,0.387-0.008,0.529l0.014,1.623
			l-0.006,0.293c-0.008,0.424,0.057,0.572,0.25,0.631c0.057,0.014,0.006,0.006,0.143,0.02c0.086,0.016,0.121,0.016,0.121,0.016
			l0.021,0.006h0.021l0.021,0.008c0.107,0.008,0.13,0.029,0.13,0.129C196.572,54.278,196.557,54.3,196.478,54.3z"/>
		<path d="M200.746,51.347c-0.207,0-0.342,0.107-0.336,0.258l0.008,0.164l-0.008,0.102l0.008,0.191c0,0.035,0,0.094-0.008,0.193
			c-0.006,0.072-0.006,0.236-0.006,0.379c0,0.18,0,0.137,0.006,0.4c0.008,0.137,0.008,0.301,0.008,0.5v0.201
			c0,0.148,0,0.27,0.007,0.379c0.007,0.062,0.007,0.113,0.007,0.164c0,0.094-0.029,0.129-0.122,0.129
			c-0.071,0-0.114-0.029-0.179-0.107c-0.094-0.129-0.129-0.172-0.365-0.422c-0.113-0.115-0.113-0.121-0.214-0.244l-0.072-0.084
			c-0.093-0.107-0.043-0.059-0.144-0.166c-0.242-0.27-0.258-0.285-0.407-0.457c-0.165-0.199-0.293-0.35-0.365-0.428
			c-0.229-0.236-0.229-0.236-0.278-0.301c-0.107-0.129-0.064-0.072-0.144-0.158c-0.021-0.021-0.028-0.035-0.028-0.035l-0.101-0.115
			l-0.05-0.062c-0.021-0.029-0.064-0.072-0.114-0.137c0,0.352,0.007,0.236,0.007,0.709v0.135v0.207c0,0.164,0.008,0.279,0.008,0.293
			l-0.008,0.293v0.107c0,0.107,0.008,0.193,0.008,0.266v0.094c0,0.186,0.106,0.264,0.356,0.271c0.106,0,0.129,0.02,0.129,0.102
			c0,0.107-0.015,0.121-0.101,0.121c-0.057,0-0.035,0-0.328-0.014c-0.036-0.01-0.114-0.01-0.2-0.01c-0.106,0-0.136,0.01-0.222,0.01
			h-0.051c-0.057,0.006-0.035,0.006-0.072,0.006h-0.057h-0.035l-0.029,0.008h-0.036h-0.036c-0.086,0-0.107-0.021-0.107-0.094v-0.021
			c0-0.078,0.021-0.092,0.172-0.092c0.207,0,0.342-0.107,0.336-0.258l-0.008-0.166l0.008-0.1v-0.193
			c0-0.027,0.006-0.102,0.006-0.199v-0.201v-0.178v-0.102v-0.363c0-0.072,0-0.145-0.006-0.371c0-0.072-0.008-0.129-0.008-0.182
			c0-0.172-0.007-0.234-0.043-0.277c-0.057-0.078-0.179-0.135-0.293-0.145c-0.171-0.006-0.186-0.02-0.186-0.135
			c0-0.072,0.035-0.094,0.165-0.094h0.086c0.101,0,0.021,0,0.458,0.016c0.357,0.006,0.343,0.006,0.408,0.086
			c0.007,0.016,0.035,0.043,0.063,0.078c0.015,0.016,0.121,0.135,0.271,0.314c0.086,0.1,0.172,0.199,0.244,0.277
			c0.084,0.094,0.092,0.102,0.179,0.217c0.071,0.086,0.214,0.264,0.336,0.414l0.063,0.064l0.215,0.234
			c0.1,0.113,0.129,0.148,0.265,0.312c0.085,0.104,0.144,0.18,0.144,0.18c0.121,0.15,0.113,0.131,0.199,0.244
			c-0.007-0.229-0.007-0.18-0.007-0.529V52.89c0-0.32-0.015-0.551-0.015-0.562l0.015-0.23c0-0.006,0-0.049-0.007-0.105
			c-0.008-0.107-0.008-0.193-0.008-0.266v-0.1c0-0.18-0.106-0.258-0.356-0.264c-0.106-0.01-0.129-0.021-0.129-0.102
			c0-0.105,0.015-0.123,0.101-0.123c0.049,0,0.035,0,0.328,0.018c0.036,0.006,0.114,0.006,0.2,0.006
			c0.106,0,0.136-0.006,0.222-0.006h0.051c0.057-0.01,0.035-0.01,0.07-0.01c0.079,0,0.029-0.008,0.158-0.008h0.036
			c0.086,0,0.106,0.021,0.106,0.096v0.02C200.918,51.333,200.896,51.347,200.746,51.347z"/>
		<path d="M203.035,54.294c-0.043,0-0.064,0-0.137-0.008h-0.136c-0.085,0-0.128-0.008-0.265-0.014
			c-0.101-0.008-0.164-0.008-0.235-0.008c-0.015,0-0.115,0.008-0.222,0.008h-0.101c-0.057,0.006-0.1,0.006-0.1,0.006
			c-0.179,0.016-0.13,0-0.165,0.008h-0.057h-0.129c-0.093,0-0.115-0.014-0.115-0.094v-0.021c0-0.078,0.021-0.092,0.172-0.092
			c0.209,0,0.344-0.102,0.337-0.258l-0.007-0.156l0.007-0.107l-0.007-0.193c0-0.078,0.007-0.102,0.007-0.191v-0.309
			c0-0.102-0.007-0.242-0.007-0.328v-0.18l0.007-0.258v-0.105c0-0.107-0.007-0.193-0.007-0.268v-0.1
			c0-0.164-0.086-0.236-0.293-0.236h-0.064c-0.021,0.01-0.036,0.01-0.059,0.01c-0.049,0-0.07-0.029-0.07-0.094v-0.021
			c0-0.049,0.014-0.086,0.036-0.086c0.106-0.006,0.05,0,0.165-0.027l0.05-0.008c0.537-0.078,0.922-0.129,1.337-0.129
			c1.064,0,1.845,0.715,1.845,1.688C204.823,53.636,204.072,54.294,203.035,54.294z M203.992,51.747
			c-0.235-0.32-0.644-0.521-1.051-0.521c-0.314,0-0.479,0.043-0.521,0.139c-0.008,0.025-0.014,0.062-0.014,0.186l-0.008,0.064v0.135
			l0.008,0.279l-0.015,0.344l0.007,0.186l-0.007,0.414l0.007,0.266v0.186c0,0.336,0.021,0.473,0.094,0.543
			c0.063,0.059,0.313,0.115,0.508,0.115c0.758,0,1.258-0.537,1.258-1.352C204.258,52.341,204.156,51.97,203.992,51.747z"/>
		<path d="M208.055,53.751c-0.015,0.049,0,0.006-0.036,0.135c-0.079,0.328-0.122,0.4-0.236,0.395l-0.148-0.006
			c0,0-0.072,0.006-0.172,0.006h-0.115c-0.307,0-0.135-0.006-0.521-0.006c-0.186,0-0.043-0.01-0.422-0.01h-0.1
			c-0.094,0-0.172,0.01-0.322,0.01h-0.092l-0.059,0.006h-0.144c-0.058,0.008-0.021,0-0.101,0.008h-0.028h-0.129
			c-0.093,0-0.113-0.014-0.113-0.094v-0.021c0-0.078,0.021-0.092,0.171-0.092c0.209,0,0.338-0.102,0.338-0.258v-0.158v-0.107v-0.191
			c0-0.016,0.006-0.086,0.006-0.193v-0.307c0-0.137-0.006-0.23-0.006-0.33v-0.178l0.006-0.26c0-0.006,0-0.049-0.006-0.105v-0.266
			v-0.1c0-0.172-0.115-0.258-0.358-0.264c-0.114-0.008-0.136-0.021-0.136-0.102c0-0.105,0.014-0.123,0.1-0.123
			c0.059,0,0.137,0,0.387,0.018c0.072,0,0.129,0.006,0.15,0.006l0.129-0.006h0.543l0.465-0.018h0.164c0.137,0,0.236,0.01,0.258,0.01
			c0.266,0,0.286,0.008,0.286,0.135v0.027v0.217v0.234c0,0.102-0.028,0.137-0.114,0.137c-0.078,0-0.101-0.051-0.115-0.217
			c-0.014-0.178-0.049-0.27-0.121-0.293c-0.077-0.02-0.301-0.043-0.457-0.043h-0.043c-0.114,0-0.063-0.006-0.157-0.006h-0.144
			c-0.293,0-0.308,0-0.308,0.414v0.094v0.102v0.186v0.393c0.114,0.008,0.214,0.008,0.272,0.008c0.57,0,0.55,0.014,0.629-0.285
			c0.021-0.072,0.05-0.1,0.113-0.1c0.059,0,0.094,0.033,0.094,0.113c0,0.008,0,0.051-0.008,0.086v0.215
			c0,0.006-0.015,0.07-0.015,0.172v0.105v0.064c0.009,0.062,0.009,0.115,0.009,0.143c0,0.094-0.052,0.145-0.129,0.137
			c-0.064-0.008-0.08-0.043-0.102-0.25c-0.021-0.164-0.036-0.18-0.193-0.186c-0.32-0.016-0.207-0.016-0.343-0.016h-0.164
			c-0.051,0-0.086,0-0.158,0.008v0.02c0,0.059-0.007-0.1-0.007,0.494v0.193v0.086c0,0.543-0.007,0.557,0.786,0.535
			c0.603-0.014,0.537,0,0.724-0.443c0.027-0.07,0.063-0.113,0.106-0.113c0.071-0.008,0.114,0.043,0.114,0.121
			C208.083,53.665,208.083,53.649,208.055,53.751z"/>
		<path d="M209.905,52.978c-0.164,0-0.215-0.029-0.215-0.121c0-0.051,0.035-0.086,0.078-0.078l0.064,0.006
			c0.078,0.008,0.25-0.043,0.365-0.107c0.18-0.105,0.264-0.299,0.264-0.586c0-0.494-0.277-0.801-0.729-0.801h-0.115
			c-0.129,0-0.144,0.021-0.144,0.244v0.312c0,0.072-0.007,0.08-0.007,0.25v0.107l0.016,0.572l-0.009,0.314l0.009,0.256l-0.009,0.287
			c-0.007,0.365,0.052,0.422,0.394,0.428c0.107,0,0.129,0.021,0.129,0.104c0,0.105-0.014,0.121-0.101,0.121
			c-0.057,0-0.135,0-0.386-0.016c-0.051-0.008-0.102-0.008-0.15-0.008c-0.021,0-0.105,0.008-0.222,0.008h-0.101
			c-0.063,0.008-0.106,0.008-0.106,0.008c-0.179,0.014-0.129,0-0.164,0.008h-0.058h-0.129c-0.094,0-0.114-0.016-0.114-0.094v-0.021
			c0-0.078,0.021-0.092,0.172-0.092c0.207,0,0.345-0.102,0.336-0.258l-0.008-0.158l0.008-0.107l-0.008-0.191
			c0-0.08,0.008-0.102,0.008-0.193v-0.307c0-0.102-0.008-0.244-0.008-0.33v-0.178l0.008-0.26v-0.105
			c0-0.107-0.008-0.193-0.008-0.266v-0.1c0-0.164-0.078-0.23-0.271-0.23c-0.035,0-0.058,0-0.086,0.008
			c-0.029,0.008-0.058,0.008-0.072,0.008c-0.035,0-0.057-0.029-0.057-0.092v-0.037c0-0.07,0.021-0.092,0.121-0.113
			c0.016,0,0.043-0.008,0.094-0.021c0.121-0.029,0.356-0.057,0.586-0.078h0.071l0.05-0.008h0.172l0.059-0.008h0.064
			c0.764,0,1.344,0.443,1.344,1.037C211.042,52.612,210.577,52.978,209.905,52.978z"/>
		<path d="M214.13,53.751c-0.014,0.049,0,0.006-0.034,0.135c-0.078,0.328-0.121,0.4-0.235,0.395l-0.15-0.006
			c0,0-0.07,0.006-0.172,0.006h-0.113c-0.309,0-0.137-0.006-0.521-0.006c-0.187,0-0.043-0.01-0.422-0.01h-0.101
			c-0.093,0-0.173,0.01-0.321,0.01h-0.094l-0.057,0.006h-0.144c-0.06,0.008-0.021,0-0.101,0.008h-0.028h-0.129
			c-0.093,0-0.114-0.014-0.114-0.094v-0.021c0-0.078,0.021-0.092,0.171-0.092c0.207,0,0.337-0.102,0.337-0.258v-0.158v-0.107v-0.191
			c0-0.016,0.008-0.086,0.008-0.193v-0.307c0-0.137-0.008-0.23-0.008-0.33v-0.178l0.008-0.26c0-0.006,0-0.049-0.008-0.105v-0.266
			v-0.1c0-0.172-0.113-0.258-0.357-0.264c-0.114-0.008-0.137-0.021-0.137-0.102c0-0.105,0.016-0.123,0.102-0.123
			c0.057,0,0.136,0,0.387,0.018c0.07,0,0.128,0.006,0.148,0.006l0.13-0.006h0.543l0.465-0.018h0.165c0.135,0,0.234,0.01,0.257,0.01
			c0.265,0,0.286,0.008,0.286,0.135v0.027v0.217v0.234c0,0.102-0.029,0.137-0.113,0.137c-0.08,0-0.102-0.051-0.115-0.217
			c-0.015-0.178-0.051-0.27-0.121-0.293c-0.08-0.02-0.301-0.043-0.459-0.043h-0.043c-0.112,0-0.062-0.006-0.155-0.006h-0.144
			c-0.293,0-0.309,0-0.309,0.414v0.094v0.102v0.186v0.393c0.115,0.008,0.215,0.008,0.271,0.008c0.571,0,0.551,0.014,0.629-0.285
			c0.021-0.072,0.051-0.1,0.115-0.1c0.057,0,0.092,0.033,0.092,0.113c0,0.008,0,0.051-0.006,0.086v0.215
			c0,0.006-0.016,0.07-0.016,0.172v0.105v0.064c0.007,0.062,0.007,0.115,0.007,0.143c0,0.094-0.049,0.145-0.129,0.137
			c-0.063-0.008-0.077-0.043-0.101-0.25c-0.021-0.164-0.034-0.18-0.192-0.186c-0.321-0.016-0.207-0.016-0.343-0.016h-0.165
			c-0.05,0-0.086,0-0.156,0.008v0.02c0,0.059-0.008-0.1-0.008,0.494v0.193v0.086c0,0.543-0.007,0.557,0.787,0.535
			c0.601-0.014,0.536,0,0.722-0.443c0.028-0.07,0.064-0.113,0.105-0.113c0.072-0.008,0.115,0.043,0.115,0.121
			C214.159,53.665,214.159,53.649,214.13,53.751z"/>
		<path d="M218.235,51.347c-0.207,0-0.344,0.107-0.337,0.258l0.007,0.164l-0.007,0.102l0.007,0.191c0,0.035,0,0.094-0.007,0.193
			c-0.007,0.072-0.007,0.236-0.007,0.379c0,0.18,0,0.137,0.007,0.4c0.007,0.137,0.007,0.301,0.007,0.5v0.201
			c0,0.148,0,0.27,0.008,0.379c0.008,0.062,0.008,0.113,0.008,0.164c0,0.094-0.028,0.129-0.122,0.129
			c-0.07,0-0.113-0.029-0.179-0.107c-0.094-0.129-0.129-0.172-0.364-0.422c-0.114-0.115-0.114-0.121-0.216-0.244l-0.069-0.084
			c-0.095-0.107-0.043-0.059-0.144-0.166c-0.244-0.27-0.258-0.285-0.408-0.457c-0.163-0.199-0.293-0.35-0.364-0.428
			c-0.229-0.236-0.229-0.236-0.278-0.301c-0.107-0.129-0.064-0.072-0.144-0.158c-0.021-0.021-0.028-0.035-0.028-0.035l-0.102-0.115
			l-0.049-0.062c-0.021-0.029-0.063-0.072-0.114-0.137c0,0.352,0.008,0.236,0.008,0.709v0.135v0.207
			c0,0.164,0.006,0.279,0.006,0.293l-0.006,0.293v0.107c0,0.107,0.006,0.193,0.006,0.266v0.094c0,0.186,0.106,0.264,0.358,0.271
			c0.107,0,0.129,0.02,0.129,0.102c0,0.107-0.016,0.121-0.102,0.121c-0.057,0-0.035,0-0.328-0.014
			c-0.037-0.01-0.115-0.01-0.201-0.01c-0.106,0-0.135,0.01-0.221,0.01h-0.051c-0.057,0.006-0.035,0.006-0.072,0.006h-0.057h-0.035
			l-0.029,0.008h-0.035h-0.034c-0.087,0-0.106-0.021-0.106-0.094v-0.021c0-0.078,0.02-0.092,0.172-0.092
			c0.207,0,0.342-0.107,0.334-0.258l-0.006-0.166l0.006-0.1v-0.193c0-0.027,0.008-0.102,0.008-0.199v-0.201v-0.178v-0.102v-0.363
			c0-0.072,0-0.145-0.008-0.371c0-0.072-0.006-0.129-0.006-0.182c0-0.172-0.009-0.234-0.044-0.277
			c-0.057-0.078-0.18-0.135-0.293-0.145c-0.172-0.006-0.187-0.02-0.187-0.135c0-0.072,0.035-0.094,0.164-0.094h0.086
			c0.101,0,0.021,0,0.457,0.016c0.357,0.006,0.345,0.006,0.408,0.086c0.008,0.016,0.035,0.043,0.064,0.078
			c0.014,0.016,0.121,0.135,0.271,0.314c0.086,0.1,0.172,0.199,0.242,0.277c0.086,0.094,0.094,0.102,0.18,0.217
			c0.07,0.086,0.214,0.264,0.336,0.414l0.064,0.064l0.215,0.234c0.1,0.113,0.127,0.148,0.264,0.312
			c0.086,0.104,0.144,0.18,0.144,0.18c0.121,0.15,0.114,0.131,0.2,0.244c-0.008-0.229-0.008-0.18-0.008-0.529V52.89
			c0-0.32-0.014-0.551-0.014-0.562l0.014-0.23c0-0.006,0-0.049-0.008-0.105c-0.006-0.107-0.006-0.193-0.006-0.266v-0.1
			c0-0.18-0.107-0.258-0.357-0.264c-0.107-0.01-0.129-0.021-0.129-0.102c0-0.105,0.014-0.123,0.1-0.123c0.051,0,0.036,0,0.329,0.018
			c0.036,0.006,0.114,0.006,0.2,0.006c0.107,0,0.136-0.006,0.222-0.006h0.05c0.059-0.01,0.037-0.01,0.072-0.01
			c0.078,0,0.028-0.008,0.156-0.008h0.035c0.087,0,0.107,0.021,0.107,0.096v0.02C218.407,51.333,218.386,51.347,218.235,51.347z"/>
		<path d="M220.522,54.294c-0.043,0-0.064,0-0.136-0.008h-0.136c-0.086,0-0.129-0.008-0.266-0.014
			c-0.101-0.008-0.164-0.008-0.234-0.008c-0.016,0-0.115,0.008-0.223,0.008h-0.101c-0.058,0.006-0.101,0.006-0.101,0.006
			c-0.18,0.016-0.129,0-0.164,0.008h-0.059h-0.129c-0.092,0-0.113-0.014-0.113-0.094v-0.021c0-0.078,0.021-0.092,0.172-0.092
			c0.207,0,0.342-0.102,0.336-0.258l-0.008-0.156l0.008-0.107l-0.008-0.193c0-0.078,0.008-0.102,0.008-0.191v-0.309
			c0-0.102-0.008-0.242-0.008-0.328v-0.18l0.008-0.258v-0.105c0-0.107-0.008-0.193-0.008-0.268v-0.1
			c0-0.164-0.086-0.236-0.293-0.236h-0.064c-0.02,0.01-0.034,0.01-0.057,0.01c-0.051,0-0.072-0.029-0.072-0.094v-0.021
			c0-0.049,0.016-0.086,0.037-0.086c0.105-0.006,0.049,0,0.164-0.027l0.049-0.008c0.537-0.078,0.924-0.129,1.338-0.129
			c1.064,0,1.845,0.715,1.845,1.688C222.31,53.636,221.56,54.294,220.522,54.294z M221.481,51.747
			c-0.236-0.32-0.645-0.521-1.052-0.521c-0.313,0-0.479,0.043-0.522,0.139c-0.006,0.025-0.014,0.062-0.014,0.186l-0.008,0.064v0.135
			l0.008,0.279l-0.014,0.344l0.006,0.186l-0.006,0.414l0.006,0.266v0.186c0,0.336,0.021,0.473,0.094,0.543
			c0.064,0.059,0.314,0.115,0.508,0.115c0.758,0,1.258-0.537,1.258-1.352C221.745,52.341,221.646,51.97,221.481,51.747z"/>
		<path d="M225.542,53.751c-0.014,0.049,0,0.006-0.035,0.135c-0.078,0.328-0.121,0.4-0.235,0.395l-0.149-0.006
			c0,0-0.072,0.006-0.172,0.006h-0.115c-0.307,0-0.135-0.006-0.521-0.006c-0.186,0-0.043-0.01-0.422-0.01h-0.1
			c-0.094,0-0.172,0.01-0.322,0.01h-0.092l-0.059,0.006h-0.144c-0.058,0.008-0.021,0-0.101,0.008h-0.029h-0.129
			c-0.092,0-0.112-0.014-0.112-0.094v-0.021c0-0.078,0.021-0.092,0.172-0.092c0.207,0,0.336-0.102,0.336-0.258v-0.158v-0.107v-0.191
			c0-0.016,0.007-0.086,0.007-0.193v-0.307c0-0.137-0.007-0.23-0.007-0.33v-0.178l0.007-0.26c0-0.006,0-0.049-0.007-0.105v-0.266
			v-0.1c0-0.172-0.114-0.258-0.356-0.264c-0.115-0.008-0.137-0.021-0.137-0.102c0-0.105,0.014-0.123,0.1-0.123
			c0.059,0,0.137,0,0.387,0.018c0.072,0,0.129,0.006,0.15,0.006l0.129-0.006h0.543l0.465-0.018h0.164c0.137,0,0.236,0.01,0.258,0.01
			c0.266,0,0.286,0.008,0.286,0.135v0.027v0.217v0.234c0,0.102-0.028,0.137-0.114,0.137c-0.078,0-0.1-0.051-0.115-0.217
			c-0.014-0.178-0.049-0.27-0.121-0.293c-0.078-0.02-0.3-0.043-0.457-0.043h-0.043c-0.115,0-0.063-0.006-0.158-0.006h-0.143
			c-0.293,0-0.308,0-0.308,0.414v0.094v0.102v0.186v0.393c0.114,0.008,0.215,0.008,0.272,0.008c0.57,0,0.549,0.014,0.629-0.285
			c0.021-0.072,0.049-0.1,0.113-0.1c0.059,0,0.094,0.033,0.094,0.113c0,0.008,0,0.051-0.009,0.086v0.215
			c0,0.006-0.014,0.07-0.014,0.172v0.105v0.064c0.008,0.062,0.008,0.115,0.008,0.143c0,0.094-0.051,0.145-0.129,0.137
			c-0.063-0.008-0.079-0.043-0.101-0.25c-0.021-0.164-0.035-0.18-0.192-0.186c-0.322-0.016-0.207-0.016-0.345-0.016h-0.164
			c-0.051,0-0.086,0-0.157,0.008v0.02c0,0.059-0.007-0.1-0.007,0.494v0.193v0.086c0,0.543-0.008,0.557,0.787,0.535
			c0.601-0.014,0.535,0,0.722-0.443c0.028-0.07,0.063-0.113,0.106-0.113c0.072-0.008,0.115,0.043,0.115,0.121
			C225.571,53.665,225.571,53.649,225.542,53.751z"/>
		<path d="M229.646,51.347c-0.207,0-0.343,0.107-0.336,0.258l0.008,0.164l-0.008,0.102l0.008,0.191c0,0.035,0,0.094-0.008,0.193
			c-0.007,0.072-0.007,0.236-0.007,0.379c0,0.18,0,0.137,0.007,0.4c0.008,0.137,0.008,0.301,0.008,0.5v0.201
			c0,0.148,0,0.27,0.008,0.379c0.006,0.062,0.006,0.113,0.006,0.164c0,0.094-0.027,0.129-0.121,0.129
			c-0.071,0-0.113-0.029-0.178-0.107c-0.094-0.129-0.129-0.172-0.365-0.422c-0.114-0.115-0.114-0.121-0.215-0.244l-0.072-0.084
			c-0.092-0.107-0.043-0.059-0.143-0.166c-0.242-0.27-0.258-0.285-0.408-0.457c-0.164-0.199-0.293-0.35-0.363-0.428
			c-0.229-0.236-0.229-0.236-0.278-0.301c-0.106-0.129-0.063-0.072-0.144-0.158c-0.021-0.021-0.028-0.035-0.028-0.035l-0.101-0.115
			l-0.051-0.062c-0.021-0.029-0.063-0.072-0.113-0.137c0,0.352,0.007,0.236,0.007,0.709v0.135v0.207
			c0,0.164,0.008,0.279,0.008,0.293l-0.008,0.293v0.107c0,0.107,0.008,0.193,0.008,0.266v0.094c0,0.186,0.106,0.264,0.356,0.271
			c0.107,0,0.129,0.02,0.129,0.102c0,0.107-0.016,0.121-0.1,0.121c-0.059,0-0.037,0-0.33-0.014c-0.035-0.01-0.113-0.01-0.199-0.01
			c-0.106,0-0.137,0.01-0.223,0.01h-0.05c-0.058,0.006-0.036,0.006-0.071,0.006h-0.058h-0.035l-0.028,0.008h-0.035h-0.037
			c-0.086,0-0.106-0.021-0.106-0.094v-0.021c0-0.078,0.021-0.092,0.172-0.092c0.207,0,0.345-0.107,0.337-0.258l-0.009-0.166
			l0.009-0.1v-0.193c0-0.027,0.008-0.102,0.008-0.199v-0.201v-0.178v-0.102v-0.363c0-0.072,0-0.145-0.008-0.371
			c0-0.072-0.009-0.129-0.009-0.182c0-0.172-0.006-0.234-0.043-0.277c-0.058-0.078-0.178-0.135-0.292-0.145
			c-0.172-0.006-0.188-0.02-0.188-0.135c0-0.072,0.037-0.094,0.166-0.094h0.084c0.102,0,0.021,0,0.459,0.016
			c0.356,0.006,0.343,0.006,0.406,0.086c0.008,0.016,0.036,0.043,0.064,0.078c0.015,0.016,0.121,0.135,0.271,0.314
			c0.086,0.1,0.172,0.199,0.243,0.277c0.087,0.094,0.093,0.102,0.179,0.217c0.071,0.086,0.215,0.264,0.336,0.414l0.063,0.064
			l0.215,0.234c0.101,0.113,0.13,0.148,0.267,0.312c0.084,0.104,0.143,0.18,0.143,0.18c0.121,0.15,0.114,0.131,0.2,0.244
			c-0.009-0.229-0.009-0.18-0.009-0.529V52.89c0-0.32-0.014-0.551-0.014-0.562l0.014-0.23c0-0.006,0-0.049-0.006-0.105
			c-0.008-0.107-0.008-0.193-0.008-0.266v-0.1c0-0.18-0.107-0.258-0.357-0.264c-0.106-0.01-0.129-0.021-0.129-0.102
			c0-0.105,0.016-0.123,0.102-0.123c0.049,0,0.035,0,0.328,0.018c0.036,0.006,0.113,0.006,0.199,0.006
			c0.107,0,0.137-0.006,0.223-0.006h0.051c0.057-0.01,0.035-0.01,0.07-0.01c0.079,0,0.029-0.008,0.158-0.008h0.035
			c0.086,0,0.106,0.021,0.106,0.096v0.02C229.817,51.333,229.796,51.347,229.646,51.347z"/>
		<path d="M233.085,51.104c0,0.008-0.008,0.057-0.021,0.121c-0.014,0.086-0.014,0.072-0.021,0.172l-0.008,0.035
			c-0.021,0.102-0.027,0.25-0.035,0.344c-0.008,0.1-0.035,0.129-0.129,0.129c-0.086,0-0.101-0.016-0.114-0.137l-0.007-0.057
			c-0.036-0.314-0.029-0.322-0.301-0.322h-0.078h-0.309h-0.188c0,0.094,0.009,0.078,0.009,0.215v0.107v0.156v0.193
			c0,0.328-0.015,0.271-0.015,0.43v0.129c0,0.229,0.015,0.363,0.015,0.428l-0.009,0.273v0.111c0,0.107,0.009,0.193,0.009,0.266
			v0.094c0,0.186,0.106,0.266,0.356,0.271c0.107,0,0.129,0.021,0.129,0.102c0,0.107-0.014,0.121-0.1,0.121
			c-0.059,0-0.137,0-0.387-0.014c-0.051-0.008-0.1-0.008-0.15-0.008c-0.029,0-0.1,0-0.222,0.008c-0.058,0-0.007-0.008-0.157,0
			c-0.064,0.006-0.021,0.006-0.143,0.006h-0.129h-0.129c-0.094,0-0.114-0.014-0.114-0.092v-0.021c0-0.08,0.021-0.094,0.171-0.094
			c0.208,0,0.337-0.094,0.337-0.258v-0.156V53.55v-0.191c0-0.021,0-0.102,0.007-0.193c0.008-0.115,0.008-0.18,0.008-0.236
			l-0.008-0.393c0,0,0-0.064,0.008-0.145v-0.143c0-0.207,0-0.107,0.008-0.301c0.006-0.129,0.006-0.137,0.006-0.15
			c-0.014-0.293-0.014-0.244-0.014-0.279v-0.135c-0.072,0.006-0.086,0.006-0.129,0.006h-0.029c-0.043,0-0.014,0-0.078,0.01h-0.094
			h-0.213c-0.279,0-0.373,0.086-0.43,0.369c-0.029,0.131-0.051,0.158-0.115,0.158c-0.1,0-0.143-0.027-0.143-0.1
			c0-0.021,0.008-0.043,0.008-0.072c0.014-0.062,0.021-0.186,0.035-0.344c0.008-0.105,0.008-0.143,0.008-0.191v-0.043
			c-0.008-0.027-0.008-0.059-0.008-0.062c0-0.107,0.043-0.158,0.121-0.158c0.064,0,0.072,0.008,0.158,0.121
			c0.035,0.059,0.078,0.08,0.143,0.072l0.107-0.01l0.1,0.01h0.229h0.201c0.18,0,0.121,0.008,0.278,0.008h0.171h0.172
			c0.029,0,0.079-0.008,0.15-0.008c0.25-0.016,0.223-0.01,0.508-0.016c0.207,0,0.271-0.029,0.352-0.137
			c0.035-0.057,0.063-0.078,0.101-0.078c0.069,0,0.129,0.049,0.129,0.113C233.094,51.054,233.094,51.075,233.085,51.104z"/>
		<path d="M237.719,53.978c-0.343,0.266-0.744,0.408-1.138,0.408c-0.278,0-0.629-0.057-0.887-0.15
			c-0.221-0.078-0.258-0.1-0.264-0.199c-0.029-0.25-0.021-0.279-0.064-0.559c-0.016-0.094-0.021-0.15-0.021-0.172
			c0-0.064,0.049-0.1,0.144-0.1c0.057,0,0.07,0.02,0.135,0.221c0.144,0.43,0.545,0.701,1.016,0.701c0.516,0,0.908-0.414,0.908-0.957
			c0-0.271-0.113-0.5-0.357-0.709c-0.143-0.121-0.215-0.164-0.422-0.279c-0.307-0.164-0.092-0.033-0.643-0.363
			c-0.58-0.344-0.73-0.564-0.73-1.051c0-0.508,0.122-0.779,0.501-1.094c0.214-0.18,0.615-0.309,0.966-0.309
			c0.379,0,0.586,0.035,0.852,0.137c0.145,0.049,0.145,0.049,0.164,0.393c0.008,0.137,0.008,0.072,0.015,0.193
			c0.007,0.064,0,0.029,0.007,0.1c0.008,0.137,0.008,0.094,0.008,0.143c0.008,0.043,0.008,0.064,0.008,0.072
			c0,0.057-0.043,0.094-0.1,0.094c-0.115,0-0.115,0.006-0.207-0.301c-0.107-0.365-0.424-0.594-0.822-0.594
			c-0.451,0-0.83,0.352-0.83,0.771c0,0.266,0.086,0.459,0.293,0.652c0.143,0.129,0.271,0.207,0.836,0.484
			c0.779,0.385,1.094,0.779,1.094,1.379C238.176,53.392,238.032,53.735,237.719,53.978z"/>
		<path d="M240.222,51.347c-0.208,0-0.344,0.102-0.337,0.258l0.008,0.158l-0.008,0.105l0.008,0.193c0,0.027,0,0.094-0.008,0.193
			c-0.007,0.084-0.007,0.07-0.007,0.234v0.129c0,0.236,0.015,0.379,0.015,0.43l-0.008,0.277v0.107c0,0.107,0.008,0.193,0.008,0.266
			v0.094c0,0.186,0.106,0.264,0.356,0.27c0.107,0,0.129,0.021,0.129,0.104c0,0.105-0.014,0.121-0.1,0.121
			c-0.058,0-0.137,0-0.379-0.016c-0.059,0-0.102-0.008-0.158-0.008c-0.021,0-0.106,0.008-0.222,0.008h-0.101l-0.049,0.008h-0.051
			c-0.179,0-0.13,0-0.164,0.008h-0.058h-0.129c-0.095,0-0.115-0.016-0.115-0.094v-0.021c0-0.078,0.021-0.092,0.172-0.092
			c0.207,0,0.345-0.102,0.337-0.258l-0.008-0.158l0.008-0.107l-0.008-0.191c0-0.043,0-0.102,0.008-0.193
			c0.008-0.086,0.008-0.172,0.008-0.307c0-0.107,0-0.23-0.008-0.33c-0.008-0.092-0.008-0.156-0.008-0.18l0.016-0.258
			c0-0.006,0-0.049-0.008-0.105c-0.008-0.102-0.008-0.188-0.008-0.266v-0.1c0-0.18-0.107-0.258-0.357-0.264
			c-0.106-0.01-0.129-0.021-0.129-0.102c0-0.105,0.016-0.123,0.102-0.123c0.057,0,0.135,0,0.379,0.018
			c0.057,0,0.1,0.006,0.156,0.006c0.021,0,0.107-0.006,0.223-0.006h0.1c0.043-0.01,0.101-0.01,0.101-0.01
			c0.18-0.014,0.129,0,0.165-0.008h0.057h0.129c0.094,0,0.114,0.018,0.114,0.096v0.02C240.392,51.333,240.37,51.347,240.222,51.347z
			"/>
		<path d="M244.753,51.255v-0.02c0-0.072-0.021-0.096-0.105-0.096h-0.035c-0.13,0-0.078,0.01-0.158,0.01
			c-0.035,0-0.015,0-0.07,0.008h-0.051c-0.086,0-0.113,0.006-0.221,0.006c-0.086,0-0.166,0-0.201-0.006
			c-0.293-0.018-0.278-0.018-0.328-0.018c-0.086,0-0.101,0.018-0.101,0.123c0,0.078,0.021,0.092,0.128,0.102
			c0.25,0.006,0.357,0.084,0.357,0.264v0.1c0,0.072,0,0.158,0.007,0.266c0.008,0.057,0.008,0.1,0.008,0.105l-0.015,0.23
			c0,0.014,0.015,0.242,0.015,0.562v0.137c0,0.352,0,0.301,0.007,0.529c-0.086-0.113-0.078-0.094-0.199-0.242
			c0,0-0.058-0.078-0.144-0.182c-0.137-0.164-0.164-0.199-0.267-0.312l-0.213-0.234l-0.064-0.064
			c-0.121-0.15-0.266-0.328-0.335-0.414c-0.086-0.115-0.094-0.123-0.181-0.217c-0.07-0.078-0.156-0.178-0.242-0.277
			c-0.148-0.18-0.258-0.301-0.271-0.314c-0.027-0.035-0.058-0.062-0.062-0.078c-0.064-0.08-0.051-0.08-0.408-0.086
			c-0.436-0.016-0.357-0.016-0.457-0.016h-0.086c-0.129,0-0.165,0.021-0.165,0.094c0,0.115,0.015,0.129,0.187,0.135
			c0.113,0.01,0.234,0.064,0.293,0.145c0.035,0.043,0.043,0.105,0.043,0.277c0,0.053,0.007,0.107,0.007,0.182
			c0.008,0.229,0.008,0.299,0.008,0.371v0.363v0.102v0.178v0.201c0,0.1-0.008,0.172-0.008,0.199v0.193l-0.007,0.1l0.007,0.166
			c0.008,0.148-0.13,0.258-0.337,0.258c-0.148,0-0.17,0.014-0.17,0.092v0.021c0,0.07,0.021,0.094,0.105,0.094h0.037h0.035
			l0.029-0.008h0.035h0.057c0.035,0,0.014,0,0.072-0.006h0.049c0.086,0,0.115-0.01,0.223-0.01c0.086,0,0.164,0,0.2,0.01
			c0.293,0.014,0.271,0.014,0.329,0.014c0.086,0,0.1-0.014,0.1-0.121c0-0.08-0.021-0.102-0.129-0.102
			c-0.25-0.008-0.357-0.086-0.357-0.271v-0.094c0-0.072-0.006-0.158-0.006-0.266v-0.107l0.006-0.293
			c0-0.014-0.006-0.129-0.006-0.293v-0.207v-0.135c0-0.473-0.008-0.357-0.008-0.709c0.051,0.064,0.094,0.107,0.113,0.137
			l0.051,0.062l0.1,0.115c0,0,0.008,0.014,0.029,0.035c0.078,0.086,0.035,0.029,0.143,0.158c0.052,0.062,0.052,0.062,0.279,0.301
			c0.071,0.078,0.199,0.229,0.365,0.428c0.148,0.172,0.164,0.188,0.406,0.457c0.102,0.107,0.051,0.059,0.145,0.166l0.07,0.084
			c0.1,0.123,0.1,0.129,0.215,0.244c0.235,0.25,0.271,0.293,0.364,0.422c0.063,0.078,0.106,0.107,0.179,0.107
			c0.094,0,0.121-0.035,0.121-0.129c0-0.051,0-0.102-0.006-0.164c-0.008-0.107-0.008-0.23-0.008-0.379v-0.201
			c0-0.199,0-0.363-0.008-0.5c-0.006-0.266-0.006-0.223-0.006-0.4c0-0.143,0-0.307,0.006-0.379c0.008-0.1,0.008-0.158,0.008-0.193
			l-0.008-0.191l0.008-0.102l-0.008-0.164c-0.006-0.15,0.129-0.258,0.336-0.258C244.731,51.347,244.753,51.333,244.753,51.255z"/>
		<path d="M248.251,53.964c-0.029,0.158-0.021,0.15-0.272,0.25c-0.271,0.115-0.563,0.172-0.871,0.172
			c-1.036,0-1.896-0.771-1.896-1.709c0-0.887,0.851-1.645,1.837-1.645c0.215,0,0.415,0.029,0.743,0.115
			c0.309,0.078,0.388,0.137,0.4,0.264c0.021,0.172,0.043,0.314,0.059,0.443c0.014,0.064,0.014,0.086,0.014,0.115
			c0,0.049-0.05,0.1-0.1,0.1c-0.059,0-0.094-0.035-0.129-0.137c-0.149-0.449-0.473-0.678-0.979-0.678
			c-0.644,0-1.229,0.65-1.229,1.357c0,0.422,0.078,0.691,0.271,0.973c0.234,0.344,0.629,0.551,1.029,0.551
			c0.258,0,0.457-0.064,0.687-0.215c0.138-0.094,0.222-0.223,0.271-0.436c0.029-0.107,0.059-0.139,0.137-0.145
			c0.072-0.008,0.107,0.049,0.107,0.156C248.329,53.536,248.301,53.728,248.251,53.964z"/>
		<path d="M251.56,53.751c-0.014,0.049,0,0.006-0.035,0.135c-0.078,0.328-0.121,0.4-0.236,0.395l-0.148-0.006
			c0,0-0.07,0.006-0.172,0.006h-0.114c-0.308,0-0.137-0.006-0.522-0.006c-0.187,0-0.041-0.01-0.42-0.01h-0.102
			c-0.093,0-0.172,0.01-0.32,0.01h-0.095l-0.058,0.006h-0.143c-0.059,0.008-0.021,0-0.101,0.008h-0.029h-0.128
			c-0.094,0-0.115-0.014-0.115-0.094v-0.021c0-0.078,0.021-0.092,0.172-0.092c0.207,0,0.336-0.102,0.336-0.258v-0.158v-0.107v-0.191
			c0-0.016,0.008-0.086,0.008-0.193v-0.307c0-0.137-0.008-0.23-0.008-0.33v-0.178l0.008-0.26c0-0.006,0-0.049-0.008-0.105v-0.266
			v-0.1c0-0.172-0.113-0.258-0.356-0.264c-0.114-0.008-0.136-0.021-0.136-0.102c0-0.105,0.015-0.123,0.101-0.123
			c0.058,0,0.136,0,0.386,0.018c0.071,0,0.129,0.006,0.149,0.006l0.129-0.006h0.543l0.466-0.018h0.165
			c0.136,0,0.235,0.01,0.257,0.01c0.266,0,0.287,0.008,0.287,0.135v0.027v0.217v0.234c0,0.102-0.029,0.137-0.115,0.137
			c-0.078,0-0.101-0.051-0.113-0.217c-0.016-0.178-0.051-0.27-0.122-0.293c-0.079-0.02-0.3-0.043-0.458-0.043h-0.043
			c-0.114,0-0.064-0.006-0.156-0.006h-0.145c-0.293,0-0.308,0-0.308,0.414v0.094v0.102v0.186v0.393
			c0.115,0.008,0.216,0.008,0.271,0.008c0.572,0,0.552,0.014,0.63-0.285c0.021-0.072,0.051-0.1,0.114-0.1
			c0.058,0,0.094,0.033,0.094,0.113c0,0.008,0,0.051-0.008,0.086v0.215c0,0.006-0.014,0.07-0.014,0.172v0.105v0.064
			c0.006,0.062,0.006,0.115,0.006,0.143c0,0.094-0.049,0.145-0.129,0.137c-0.063-0.008-0.078-0.043-0.1-0.25
			c-0.021-0.164-0.035-0.18-0.193-0.186c-0.322-0.016-0.207-0.016-0.344-0.016h-0.164c-0.049,0-0.086,0-0.156,0.008v0.02
			c0,0.059-0.008-0.1-0.008,0.494v0.193v0.086c0,0.543-0.007,0.557,0.787,0.535c0.6-0.014,0.536,0,0.723-0.443
			c0.027-0.07,0.062-0.113,0.105-0.113c0.072-0.008,0.115,0.043,0.115,0.121C251.59,53.665,251.59,53.649,251.56,53.751z"/>
		<path d="M255.528,51.448c-0.486,0.035-0.558,0.135-0.558,0.766v0.207c0,0.395-0.015,0.457-0.015,0.914v0.158
			c0,0.393,0.094,0.521,0.43,0.557c0.171,0.016,0.171,0.016,0.171,0.129c0,0.102-0.007,0.107-0.085,0.107h-0.086
			c-0.021,0,0.021,0-0.244-0.008c-0.199-0.006-0.092-0.014-0.328-0.014h-0.035c-0.145,0-0.336,0.008-0.516,0.021
			c-0.071,0.006-0.223,0.014-0.293,0.014c-0.18,0-0.193-0.008-0.193-0.121c0,0,0-0.014,0-0.035c0-0.059,0.014-0.064,0.072-0.072
			c0.486-0.035,0.557-0.137,0.557-0.766v-0.441c0-0.273,0.016-0.309,0.016-0.682v-0.178c0-0.371-0.102-0.5-0.43-0.537
			c-0.172-0.02-0.172-0.014-0.172-0.127c0-0.102,0.008-0.107,0.086-0.107h0.071c0.043,0-0.015,0,0.259,0.008
			c0.127,0.006,0.148,0.006,0.148,0.006h0.059l0.062,0.008h0.059h0.035c0.129,0,0.344-0.008,0.516-0.02
			c0.07-0.01,0.221-0.016,0.293-0.016c0.18,0,0.192,0.006,0.192,0.121c0,0,0,0.014,0,0.035
			C255.6,51.433,255.587,51.44,255.528,51.448z"/>
		<path d="M256.844,55.487c-0.021,0.014-0.058,0.035-0.101,0.057c-0.414,0.23-0.664,0.33-0.844,0.33
			c-0.064,0-0.121-0.051-0.121-0.115c0-0.057,0.014-0.07,0.258-0.164c0.058-0.02,0.25-0.129,0.357-0.199
			c0.421-0.279,0.793-0.615,1.036-0.932c0.257-0.32,0.501-0.82,0.485-1c0-0.014-0.006-0.02-0.021-0.02
			c-0.014,0-0.021,0.006-0.049,0.02c-0.258,0.193-0.544,0.287-0.873,0.287c-0.314,0-0.557-0.129-0.723-0.373
			c-0.149-0.223-0.187-0.379-0.187-0.77c0-0.752,0.615-1.373,1.358-1.373c0.744,0,1.216,0.605,1.216,1.564
			C258.639,53.815,257.909,54.901,256.844,55.487z M257.894,51.862c-0.1-0.207-0.307-0.322-0.564-0.322
			c-0.242,0-0.551,0.266-0.613,0.529c-0.079,0.309-0.079,0.207-0.086,0.602c-0.016,0.463,0.25,0.75,0.664,0.75
			c0.137,0,0.258-0.029,0.394-0.086c0.173-0.078,0.271-0.15,0.293-0.193c0.052-0.135,0.087-0.363,0.087-0.594
			C258.065,52.37,257.987,52.042,257.894,51.862z"/>
		<path d="M261.733,50.011c-0.25,0.102-0.808,0.508-1.115,0.822c-0.25,0.25-0.371,0.408-0.551,0.715
			c-0.121,0.221-0.221,0.486-0.214,0.594c0,0.016,0.007,0.021,0.021,0.021c0.021,0,0.017,0,0.107-0.072
			c0.208-0.156,0.465-0.242,0.752-0.242c0.278,0,0.485,0.078,0.65,0.236c0.178,0.178,0.32,0.57,0.32,0.871
			c0,0.83-0.571,1.402-1.387,1.402c-0.715,0-1.158-0.596-1.158-1.561c0-1.008,0.723-2.102,1.781-2.68
			c0.027-0.021,0.063-0.037,0.1-0.061c0.387-0.221,0.65-0.328,0.809-0.328c0.085,0,0.143,0.045,0.143,0.115
			C261.991,49.903,261.977,49.917,261.733,50.011z M260.482,52.183c-0.143,0-0.265,0.029-0.394,0.086
			c-0.178,0.08-0.278,0.145-0.301,0.188c0,0.014-0.006,0.021-0.006,0.029c-0.043,0.105-0.08,0.371-0.08,0.57
			c0,0.18,0.08,0.508,0.172,0.688c0.102,0.207,0.309,0.32,0.564,0.32c0.251,0,0.536-0.242,0.622-0.527
			c0.009-0.029,0.015-0.037,0.05-0.209c0.016-0.064,0.016-0.035,0.016-0.092v-0.037c0.007-0.057,0-0.027,0.015-0.092v-0.051
			c0.007-0.07,0.007-0.035,0.007-0.121C261.155,52.47,260.891,52.183,260.482,52.183z"/>
		<path d="M264.759,53.763c0,0.008-0.028,0.043-0.057,0.094c-0.016,0.035-0.051,0.078-0.086,0.137
			c-0.059,0.078-0.051,0.078-0.123,0.193c-0.043,0.07-0.069,0.078-0.199,0.078c-0.028,0-0.008,0-0.18-0.008
			c-0.093-0.006-0.021,0-0.221-0.006c-0.107-0.008-0.193-0.008-0.223-0.008h-0.172h-0.336c-0.058,0,0.035,0-0.285,0.008
			c-0.293,0-0.301,0-0.465,0.006c-0.181,0.016-0.101,0.008-0.229,0.016c-0.043,0-0.079-0.072-0.079-0.158
			c0-0.043,0.016-0.057,0.085-0.107l0.029-0.014c0.028-0.021-0.043,0.014,0.172-0.129l0.313-0.215
			c0.25-0.172,0.623-0.564,0.787-0.814c0.187-0.287,0.229-0.408,0.229-0.672c0-0.314-0.187-0.486-0.529-0.486
			c-0.187,0-0.37,0.07-0.457,0.172c-0.021,0.027-0.036,0.035-0.071,0.035c-0.101,0-0.207-0.078-0.207-0.148
			c0-0.064,0.172-0.236,0.35-0.352c0.186-0.115,0.443-0.186,0.68-0.186c0.529,0,0.814,0.293,0.814,0.844
			c0,0.27-0.113,0.543-0.321,0.758c-0.085,0.086-0.25,0.234-0.458,0.414c-0.078,0.07-0.062,0.064-0.191,0.164
			c-0.145,0.107-0.192,0.15-0.229,0.172c-0.063,0.043-0.093,0.072-0.093,0.102c0,0.02,0.027,0.027,0.064,0.027
			c0.021,0,0.07,0,0.129,0.008h0.164c0.107,0,0.187,0.008,0.215,0.008h0.293c0.429,0,0.336,0,0.472-0.008
			c0.106-0.008,0.18-0.008,0.223-0.008h0.086h0.05h0.021c0.035,0,0.057,0.016,0.057,0.035
			C264.78,53.728,264.772,53.751,264.759,53.763z"/>
	</g>
</g>
</svg>
