<?xml version="1.0" encoding="utf-8"?>
<!-- Generator: Adobe Illustrator 16.0.3, SVG Export Plug-In . SVG Version: 6.00 Build 0)  -->
<!DOCTYPE svg PUBLIC "-//W3C//DTD SVG 1.1//EN" "http://www.w3.org/Graphics/SVG/1.1/DTD/svg11.dtd">
<svg version="1.1" id="Layer_1" xmlns="http://www.w3.org/2000/svg" xmlns:xlink="http://www.w3.org/1999/xlink" x="0px" y="0px"
	 width="56.693px" height="56.693px" viewBox="0 0 56.693 56.693" enable-background="new 0 0 56.693 56.693" xml:space="preserve">
<path d="M52.837,15.065c-1.811,0.805-3.76,1.348-5.805,1.591c2.088-1.25,3.689-3.23,4.444-5.592c-1.953,1.159-4.115,2-6.418,2.454
	c-1.845-1.964-4.472-3.192-7.377-3.192c-5.581,0-10.106,4.525-10.106,10.107c0,0.791,0.089,1.562,0.262,2.303
	c-8.398-0.422-15.848-4.445-20.833-10.562c-0.87,1.492-1.366,3.229-1.366,5.082c0,3.508,1.782,6.602,4.494,8.412
	c-1.654-0.053-3.215-0.508-4.576-1.265c-0.001,0.042-0.001,0.085-0.001,0.128c0,4.896,3.482,8.98,8.106,9.91
	c-0.848,0.229-1.741,0.354-2.663,0.354c-0.65,0-1.285-0.062-1.9-0.182c1.285,4.015,5.019,6.938,9.439,7.019
	c-3.459,2.711-7.814,4.327-12.552,4.327c-0.815,0-1.62-0.048-2.411-0.142c4.474,2.869,9.786,4.541,15.493,4.541
	c18.591,0,28.756-15.4,28.756-28.756c0-0.438-0.009-0.875-0.028-1.311C49.769,18.873,51.483,17.092,52.837,15.065z"/>
</svg>
